<svg width="182" height="268" viewBox="0 0 182 268" fill="none" xmlns="http://www.w3.org/2000/svg">
<path fill-rule="evenodd" clip-rule="evenodd" d="M15 0.0888062C6.71573 0.0888062 0 6.80454 0 15.0888V252.089C0 260.373 6.71574 267.089 15 267.089H167C175.284 267.089 182 260.373 182 252.089V15.0888C182 6.80453 175.284 0.0888062 167 0.0888062H15ZM5 209.089L5 25L5.35166 20.226C5.93829 12.262 12.3073 5.94983 20.2762 5.43467L25.6263 5.08881H117.079L117.078 5.089L121.851 5.45764C129.813 6.0726 136.102 12.464 136.589 20.4347L137 27.16L137.104 26.9614L137.137 34.2714C137.162 39.7941 141.66 44.2509 147.182 44.2257L158.178 44.1756L161.774 44.4405C169.738 45.0271 176.05 51.3961 176.565 59.365L177 66.0888V242.089L176.648 246.863C176.062 254.827 169.693 261.139 161.724 261.654L155 262.089H129C122.58 261.623 117.486 256.494 117.064 250.071L117 249.089V232.089C117 226.566 112.523 222.089 107 222.089H17C10.5797 221.623 5.4861 216.494 5.06447 210.071L5 209.089Z" fill="#EC1616"/>
</svg>
