<svg width="262" height="159" viewBox="0 0 262 159" fill="none" xmlns="http://www.w3.org/2000/svg">
<path d="M133.077 158.38C130.521 154.278 127.881 150.218 125.425 146.052C123.153 142.203 121.392 138.116 120.692 133.657C120.082 129.77 120.424 126.078 123.153 122.938C123.579 122.444 123.942 121.892 124.337 121.371C125.862 119.362 125.935 119.073 125.599 116.265C123.553 116.17 121.481 116.096 119.409 115.975C118.105 115.902 116.8 115.718 115.496 115.66C114.392 115.613 114.06 115.108 114.029 114.024C113.945 111.063 113.708 108.102 113.587 105.142C113.555 104.379 113.271 104.016 112.572 103.706C98.7352 97.5842 85.0456 91.0944 71.0247 85.4145C63.5567 82.3905 56.6147 78.1464 48.7575 76.0322C46.9484 75.5484 45.3128 74.3861 43.6404 73.4447C42.394 72.7452 41.3895 72.7557 40.406 73.9022C38.4864 76.1321 35.7937 76.4582 33.1116 76.4897C30.2033 76.5266 27.3791 75.927 24.7916 74.5228C21.289 72.619 19.6166 69.2269 20.3424 65.3088C20.5475 64.2096 20.3056 63.6206 19.2853 63.1631C12.8481 60.2811 6.42667 57.357 0 54.4487C0 54.1016 0 53.7492 0 53.4021C0.788871 50.0994 1.583 46.7966 2.37187 43.4939C2.87675 41.3744 3.42896 39.2655 3.86547 37.1303C4.0548 36.21 4.52812 35.8944 5.38536 35.8997C6.73696 35.9049 8.09382 35.8891 9.44542 35.8891C14.6309 35.8891 19.8165 35.8629 25.002 35.947C25.6015 35.9575 26.4903 36.4414 26.7322 36.9515C27.3107 38.1506 27.6158 39.4864 27.9734 40.7802C28.1785 41.527 28.2679 42.3053 28.6834 43.0784C28.6834 42.5262 28.6676 41.974 28.6834 41.4218C28.736 39.7704 28.7254 38.1138 28.9095 36.4834C28.9568 36.0785 29.6616 35.4316 30.056 35.4369C36.9455 35.5157 43.8402 35.7051 50.7297 35.7997C51.9498 35.8155 52.6125 36.3257 52.9175 37.3985C53.4382 39.234 53.9115 41.0852 54.6004 42.9942C54.7109 42.0476 54.8423 41.1062 54.9318 40.1596C55.0527 38.9026 55.1211 37.6404 55.2526 36.3835C55.3367 35.6052 55.7627 35.3527 56.5989 35.3843C60.8693 35.5315 65.1397 35.5736 69.4102 35.7051C72.2396 35.7945 75.069 35.9838 77.8984 36.0943C78.782 36.1258 79.0923 36.5728 79.2185 37.3827C79.4604 38.9657 79.7759 40.5435 80.0599 42.1212C80.1914 42.137 80.3229 42.158 80.4544 42.1738C80.8541 40.7591 81.4168 39.3707 81.6166 37.9297C81.827 36.3888 82.6001 35.9207 84.0096 35.9102C88.7638 35.8734 93.5181 35.7945 98.2723 35.7314C99.2768 35.7209 100.281 35.7419 101.286 35.7103C103.332 35.6525 104.636 36.6675 105.046 38.7238C105.199 39.4917 105.262 40.2753 105.367 41.0536C105.472 41.8057 105.577 42.5577 105.988 43.3361C106.108 42.8628 106.229 42.3842 106.345 41.9109C106.671 40.6013 106.934 39.2708 107.329 37.9823C107.928 36.0154 108.254 35.6998 110.268 35.6525C116.548 35.5157 122.827 35.4737 129.101 35.3685C129.811 35.358 130.095 35.6314 130.258 36.2888C130.569 37.551 130.953 38.7975 131.626 40.0807C131.778 38.9184 131.973 37.7561 132.062 36.5886C132.141 35.5473 132.662 35.1371 133.656 35.1161C140.461 34.9846 147.267 34.6322 154.025 35.8681C156.034 36.2363 156.018 36.1784 156.144 38.1716C156.239 39.7073 156.412 41.243 156.549 42.7786L157.043 42.7891C157.169 41.7373 157.201 40.6697 157.443 39.6442C157.732 38.403 158.132 37.1776 158.621 36.0048C158.752 35.684 159.368 35.3895 159.768 35.379C164.737 35.2528 169.707 35.0687 174.677 35.1476C176.555 35.1792 178.448 35.7734 180.289 36.2678C180.783 36.4045 181.304 37.0619 181.493 37.5984C181.977 38.9447 182.277 40.3542 182.65 41.7373C182.76 41.7426 182.876 41.7531 182.987 41.7584C183.144 40.5435 183.376 39.3339 183.439 38.119C183.502 36.9199 184.075 36.3362 185.195 36.0259C188.74 35.0424 192.348 35.0056 195.977 35.1055C198.901 35.1844 201.825 35.1739 204.744 35.3054C205.238 35.3264 206.001 35.7577 206.148 36.1679C206.842 38.1664 207.368 40.2227 207.941 42.2632C208.031 42.5735 208.052 42.9048 208.362 43.2519C208.583 42.0003 208.798 40.7486 209.03 39.5022C209.167 38.7764 209.272 38.0349 209.498 37.3354C209.977 35.8734 210.786 35.3212 212.301 35.3212C218.675 35.3054 225.049 35.3106 231.423 35.2581C232.491 35.2475 233.006 35.5683 233.196 36.657C233.432 38.0033 233.843 39.3234 234.447 40.6487C234.884 39.1972 235.362 37.7561 235.741 36.2888C235.936 35.5368 236.267 35.1949 237.077 35.1949C243.582 35.1897 250.083 35.1581 256.588 35.1213C257.514 35.1213 258.045 35.5315 258.245 36.4361C259.213 40.817 260.196 45.1926 261.159 49.5734C261.49 51.0828 261.769 52.608 262 53.7492C257.062 55.9633 252.434 58.0827 247.763 60.118C246.128 60.828 244.424 61.396 242.709 61.8851C241.758 62.1533 241.437 62.6056 241.51 63.5417C241.584 64.4989 241.495 65.4666 241.579 66.4185C241.815 69.148 240.837 71.4199 238.581 72.8399C236.498 74.1494 234.242 75.317 231.907 76.0427C228.473 77.1103 225.365 75.7692 222.604 73.7392C220.221 71.9879 220.279 71.9248 217.697 73.4184C217.092 73.7708 216.477 74.1021 215.84 74.3861C207.21 78.2568 198.601 82.1854 189.934 85.972C178.027 91.1785 166.1 96.3377 154.114 101.371C152.136 102.202 150.964 102.722 151.143 105.331C151.348 108.329 150.617 111.395 150.327 114.429C150.254 115.181 149.986 115.481 149.191 115.465C147.098 115.418 145 115.486 142.907 115.434C141.723 115.407 141.219 115.981 141.487 117.032C142.002 119.047 142.328 121.214 143.322 122.991C146.446 128.582 145.973 134.077 143.28 139.531C140.267 145.632 137.064 151.632 133.945 157.68C133.824 157.912 133.719 158.154 133.609 158.39H133.083L133.077 158.38ZM138.584 99.3039C140.971 99.6826 142.996 99.5721 144.632 97.7314C145.378 96.8952 146.325 96.222 147.23 95.5384C157.559 87.718 167.893 79.8924 178.253 72.1194C179.174 71.4304 179.347 70.7941 179.105 69.7107C177.917 64.42 178.9 59.671 182.887 55.7582C183.055 55.5899 183.181 55.3795 183.434 55.0535C182.971 55.0061 182.687 54.9483 182.398 54.9483C175.072 54.9483 167.74 54.9746 160.414 54.9325C159.079 54.922 158.342 55.3638 157.706 56.5944C150.801 69.8369 144.995 83.5685 139.346 97.3738C139.104 97.9733 138.873 98.5729 138.584 99.3092V99.3039ZM123.39 99.5195C123.232 99.0462 123.143 98.6781 122.996 98.3415C116.769 84.2312 110.531 70.1262 104.32 56.0106C103.957 55.1902 103.479 54.9746 102.622 54.9746C94.9012 55.0061 87.1808 54.9904 79.4604 54.9956C79.0975 54.9956 78.7346 55.0535 78.2087 55.0955C79.3868 56.4051 80.5806 57.4622 81.4378 58.7401C83.8939 62.39 85.5663 66.1923 82.6842 70.4417C82.6474 70.4996 82.6842 70.6048 82.6842 70.7993C83.3416 71.32 84.0411 71.8985 84.7721 72.4455C88.5429 75.2644 92.3295 78.0675 96.0898 80.8969C97.899 82.259 99.6765 83.6685 101.465 85.0516C104.047 87.0448 106.524 89.1853 109.232 90.9839C112.519 93.1665 116.211 94.7127 119.093 97.5474C120.177 98.615 121.586 99.4143 123.374 99.5143L123.39 99.5195ZM109.464 55.1324C109.69 55.7897 109.816 56.2 109.969 56.6049C115.091 70.2103 121.108 83.416 127.476 96.4797C128.702 98.9989 129.953 100.23 132.804 99.5984C133.672 99.4038 134.14 99.2145 134.482 98.3625C136.359 93.7134 138.263 89.0749 140.235 84.4679C144.174 75.2486 148.166 66.0503 152.121 56.8363C152.336 56.342 152.447 55.8003 152.657 55.1218C147.934 54.78 143.417 54.4066 138.847 55.0587C138.915 55.3059 138.92 55.4006 138.962 55.4689C139.036 55.5794 139.125 55.674 139.22 55.7634C142.26 58.6297 143.007 62.2217 142.46 66.1923C141.508 73.0713 134.997 77.652 128.086 76.5897C122.433 75.7219 116.627 69.1795 118.662 62.3058C119.588 59.1766 120.813 56.6207 124.058 55.4742C124.105 55.4584 124.116 55.3427 124.195 55.1376H109.464V55.1324ZM113.498 99.2513C113.566 99.1514 113.629 99.0515 113.697 98.9568C113.129 98.5729 112.567 98.1837 111.988 97.8156C110.274 96.7217 108.501 95.7066 106.84 94.5339C102.059 91.1733 97.2731 87.8179 92.5925 84.3206C89.9839 82.3695 87.5858 80.1396 85.0824 78.0464C83.9464 77.0945 82.7947 76.1637 81.6324 75.2433C80.3913 74.2599 79.1606 74.2493 77.7722 75.0908C76.5942 75.806 75.2952 76.6843 73.9961 76.779C69.8572 77.0945 64.4718 75.8271 61.8055 71.2096C59.9805 68.0436 59.7544 64.6777 60.559 61.2119C60.7852 60.239 60.6064 59.5763 59.7965 59.103C58.408 58.2931 57.0564 57.3675 55.5786 56.789C52.0392 55.4006 48.2789 55.1587 44.5186 55.0535C42.578 55.0009 40.6321 55.0429 38.6915 55.0429C38.9387 55.5899 39.2174 55.8476 39.5172 56.0843C43.1986 59.0504 44.7553 62.8738 43.9507 67.5387C43.7561 68.6589 44.1084 69.0375 45.0446 69.4425C64.7874 78.057 84.5197 86.703 104.257 95.3333C107.323 96.6743 110.416 97.947 113.498 99.2513ZM151.705 97.3528C151.763 97.4632 151.821 97.5789 151.879 97.6893C153.993 96.79 156.091 95.8697 158.216 94.9967C164.385 92.4618 170.607 90.0583 176.712 87.3919C183.186 84.5678 189.571 81.549 195.956 78.5408C203.324 75.0645 210.655 71.4988 218.007 67.991C218.754 67.6333 218.959 67.2126 218.78 66.3659C217.918 62.1849 219.159 58.6297 222.172 55.6478C222.43 55.3953 222.646 55.1061 222.882 54.8326C222.846 54.7116 222.809 54.5854 222.772 54.4644C219.264 54.6696 215.741 54.7432 212.248 55.1113C208.688 55.4847 205.333 56.4997 202.708 59.2029C201.946 59.9865 201.604 60.7386 201.667 61.8483C201.757 63.405 201.783 64.9985 201.562 66.5394C200.536 73.5814 192.143 79.2718 185.138 75.2591C183.87 74.5333 182.887 74.6806 181.719 75.5221C173.226 81.6332 164.685 87.6759 156.181 93.7765C154.629 94.8915 153.194 96.1642 151.705 97.3633V97.3528ZM257.077 50.3045C256.999 49.6103 256.972 49.0475 256.867 48.5006C256.325 45.7237 255.71 42.9627 255.242 40.1701C255.084 39.2234 254.748 38.971 253.822 38.9815C249.289 39.0289 244.755 38.9973 240.222 39.0026C238.697 39.0026 238.308 39.3234 238.087 40.838C237.692 43.5096 237.387 46.1918 236.93 48.8529C236.73 50.0152 236.977 50.4044 238.197 50.3939C244.082 50.3465 249.967 50.3728 255.852 50.3676C256.194 50.3676 256.536 50.3308 257.077 50.2992V50.3045ZM52.5073 50.5516C51.5659 47.3909 50.6929 44.5352 49.8672 41.6637C49.4675 40.27 48.5682 39.7599 47.1693 39.7704C42.8988 39.802 38.6284 39.7914 34.3632 39.7704C33.627 39.7704 33.2956 39.9755 33.1799 40.7644C32.8486 42.9574 32.3858 45.1295 32.0229 47.3225C31.8494 48.3744 31.7915 49.4472 31.6653 50.6095C38.5758 51.1775 45.297 51.1144 52.5073 50.5569V50.5516ZM231.118 50.4412C231.118 49.8101 231.176 49.3736 231.108 48.9581C230.661 46.0761 230.172 43.1994 229.735 40.3121C229.614 39.5074 229.078 39.4969 228.499 39.5074C223.577 39.56 218.654 39.6337 213.732 39.66C212.911 39.66 212.832 40.1806 212.727 40.7433C212.201 43.5254 211.675 46.3023 211.17 49.0896C210.928 50.4307 211.091 50.599 212.459 50.5885C217.471 50.5411 222.483 50.4938 227.5 50.4465C228.625 50.4359 229.751 50.4465 231.118 50.4465V50.4412ZM180.205 50.5622C180.241 50.0573 180.326 49.7891 180.273 49.5471C179.621 46.4442 178.963 43.3414 178.253 40.249C178.196 40.0018 177.706 39.6968 177.412 39.6915C172.489 39.6547 167.567 39.6547 162.644 39.6915C162.323 39.6915 161.808 40.0491 161.724 40.3384C160.756 43.6569 160.504 47.0596 160.541 50.5516H180.21L180.205 50.5622ZM154.398 50.8146C153.656 47.0753 153.046 43.8357 152.326 40.6171C152.247 40.2595 151.563 39.7914 151.153 39.7862C146.362 39.702 141.571 39.7073 136.775 39.66C136.022 39.6547 135.707 39.8966 135.612 40.6802C135.255 43.6201 134.844 46.5494 134.403 49.4735C134.255 50.4622 134.571 50.783 135.565 50.7725C138.747 50.7462 141.928 50.7988 145.105 50.8041C148.055 50.8146 151.001 50.8041 154.403 50.8041L154.398 50.8146ZM57.4824 50.7778C57.8664 50.8356 58.0294 50.883 58.1977 50.883C63.6462 50.8304 69.0946 50.7725 74.5431 50.7147C78.2035 50.6726 78.1877 50.6516 77.2147 47.0543C76.6573 45.0032 76.2786 42.9048 75.7264 40.8485C75.6317 40.4962 75.0953 40.0439 74.7324 40.0176C72.4289 39.8598 70.1202 39.7125 67.8167 39.7494C65.3028 39.7914 62.7889 39.9808 60.2908 40.2595C59.7544 40.3226 58.9445 40.9958 58.8551 41.4901C58.3081 44.5247 57.9347 47.596 57.4824 50.7725V50.7778ZM108.564 50.5885H128.47C128.107 46.9176 127.408 43.5254 126.246 40.2332C126.156 39.9808 125.646 39.7283 125.325 39.7283C120.613 39.7178 115.901 39.7388 111.189 39.8125C110.884 39.8125 110.395 40.2911 110.321 40.6171C109.906 42.4894 109.58 44.3774 109.248 46.2654C109.012 47.6276 108.812 48.9897 108.559 50.5832L108.564 50.5885ZM103.058 50.5359C102.438 47.3436 101.896 44.3248 101.249 41.3271C101.007 40.2227 100.171 39.7599 98.9981 39.7651C94.8118 39.7862 90.6203 39.7178 86.434 39.7651C86.0133 39.7651 85.3243 40.2069 85.2244 40.5698C84.425 43.4623 83.7256 46.3811 83.0261 49.3C82.7842 50.3097 83.1996 50.6673 84.2725 50.6673C88.9847 50.6568 93.6916 50.7462 98.4038 50.7567C99.8291 50.7567 101.254 50.6305 103.069 50.5411L103.058 50.5359ZM26.5008 50.7567C25.2702 47.0438 24.1973 43.7042 23.0245 40.4015C22.9141 40.0912 22.2146 39.8493 21.7729 39.8282C20.6474 39.7704 19.5167 39.8598 18.386 39.8756C15.12 39.9177 11.8541 39.9229 8.58818 40.0176C8.18323 40.0281 7.4785 40.4225 7.44169 40.7065C7.0157 44.0619 6.68963 47.4277 6.34253 50.7567H26.5008ZM205.759 50.2782C205.086 47.1069 204.449 44.1407 203.839 41.1693C203.65 40.249 203.129 39.8756 202.204 39.8598C198.023 39.7914 193.841 39.6284 189.66 39.6284C187.241 39.6284 187.268 39.7441 186.852 42.1633C186.663 43.273 186.337 44.3616 186.079 45.4661C185.816 46.5652 185.5 47.6591 185.306 48.7688C185.059 50.2098 185.222 50.3728 186.652 50.3728C192.495 50.3728 198.333 50.3728 204.176 50.3728C204.56 50.3728 204.938 50.3255 205.764 50.2729L205.759 50.2782ZM237.203 64.2254C237.124 63.4471 237.14 62.6477 236.945 61.8956C235.988 58.1984 232.617 55.2744 227.952 56.6628C226.38 57.1308 224.676 58.2142 223.761 59.5237C222.809 60.8859 222.409 62.8528 222.351 64.5725C222.167 69.8948 226.238 73.5972 231.06 72.5769C234.663 71.8144 237.082 68.8166 237.203 64.2307V64.2254ZM79.5708 65.7348C79.0923 63.9835 78.661 62.2164 78.1088 60.4862C77.9668 60.0497 77.4935 59.6342 77.0675 59.4028C75.6528 58.6349 74.2012 57.9197 72.7339 57.2571C71.0984 56.5155 69.3102 56.789 68.2216 57.9513C66.6491 59.6394 65.2134 61.6169 64.3088 63.7258C62.994 66.7866 64.4771 69.8737 67.4906 71.3463C69.5942 72.3718 71.7557 72.4297 74.0961 72.1772C77.1779 71.8459 79.4288 69.3163 79.5761 65.7348H79.5708ZM32.2438 57.0888C28.3415 57.0888 25.9644 59.0241 24.9283 62.8528C23.5978 67.7648 25.4911 70.4049 29.0462 72.2456C29.5932 72.5296 30.3137 72.7032 30.908 72.6138C33.7269 72.193 36.2776 71.0833 38.3444 69.1059C38.9124 68.5642 39.1806 67.6596 39.4699 66.8813C40.0747 65.2457 39.3542 63.7363 38.9177 62.1954C37.8869 58.5561 35.9936 57.094 32.2438 57.094V57.0888ZM123.143 63.8205C123.001 69.4162 126.225 72.6821 131.1 72.2824C133.971 72.0458 137.406 69.3163 138.079 66.7288C138.847 63.7731 137.474 60.3442 134.802 58.514C132.31 56.81 129.832 56.7785 127.045 58.0196C123.947 59.4028 123.306 59.9813 123.148 63.4208C123.138 63.6837 123.148 63.9414 123.148 63.8205H123.143ZM197.528 65.6296C197.528 62.3742 195.982 59.4659 193.295 57.6567C190.176 55.5583 185.911 56.6049 183.975 59.8235C182.056 63.0158 182.997 67.8332 184.875 70.0368C186.363 71.7775 188.062 72.9977 190.555 72.0142C191.396 71.6829 192.327 71.5672 193.205 71.3253C196.203 70.4891 197.528 68.7378 197.528 65.6349V65.6296ZM146.162 110.537C146.162 108.555 146.131 106.772 146.178 104.994C146.199 104.116 145.931 103.711 144.995 103.753C142.165 103.879 139.33 103.974 136.496 104.063C131.316 104.237 126.135 104.368 120.955 104.61C120.476 104.631 119.772 105.189 119.609 105.652C119.198 106.835 119.035 108.108 118.767 109.338C118.557 110.29 118.794 110.821 119.914 110.816C125.32 110.806 130.721 110.869 136.128 110.832C139.346 110.811 142.565 110.648 146.162 110.532V110.537ZM133.219 133.178C135.738 132.978 138.079 132.784 140.419 132.605C141.245 132.542 141.629 132.131 141.76 131.301C142.06 129.434 141.713 127.766 140.551 126.252C138.321 123.333 132.636 121.398 129.075 122.497C128.349 122.723 127.66 123.333 127.156 123.927C126.514 124.685 125.92 125.552 125.578 126.473C125.041 127.919 124.684 129.439 124.347 130.948C124.179 131.721 124.5 132.237 125.441 132.326C128.081 132.573 130.716 132.899 133.214 133.178H133.219ZM126.824 136.302C128.407 141.787 130.258 146.889 133.172 151.816C135.291 146.51 137.295 141.482 139.362 136.302H126.819H126.824ZM13.8684 55.6215C13.8473 55.7477 13.821 55.8792 13.8 56.0054C16.0825 57.0362 18.3597 58.0827 20.6632 59.0609C20.8841 59.1556 21.3521 58.8611 21.6046 58.6402C22.5144 57.8408 23.3716 56.9783 24.2657 56.1631C24.5812 55.8739 24.9494 55.6372 25.2965 55.3795C25.2491 55.2533 25.1966 55.1324 25.1492 55.0061C21.3889 55.2112 17.6286 55.4216 13.8631 55.6267L13.8684 55.6215ZM236.777 54.8589C237.135 55.2954 237.282 55.5005 237.456 55.6898C239.135 57.5586 241.142 58.0372 243.477 57.1256C245.034 56.5208 246.585 55.8949 248.137 55.2796C248.111 55.1376 248.079 54.9956 248.053 54.8536H236.782L236.777 54.8589ZM130.905 117.506C130.905 117.611 130.911 117.716 130.916 117.821C133.34 118.09 135.765 118.358 138.21 118.631C138.447 117.895 138.521 117.364 137.553 117.359C135.649 117.348 133.74 117.295 131.836 117.29C131.526 117.29 131.216 117.432 130.905 117.506ZM61.4321 55.1797C63.4726 57.0625 63.3937 57.2465 65.2186 55.1797H61.4321ZM197.465 54.5959C199.432 56.5628 200.026 56.5839 201.699 54.8852C200.205 54.7852 198.838 54.6906 197.465 54.5959Z" fill="white"/>
<path d="M100.87 29.9937C97.7096 29.9937 94.5752 30.0252 91.446 29.9463C91.1147 29.9358 90.6571 29.3415 90.4941 28.9261C89.0478 25.2815 87.6647 21.6106 86.2342 17.9555C86.0659 17.519 85.7504 17.1403 85.377 16.5303C85.1403 17.0036 84.972 17.1876 84.972 17.3665C84.972 20.0697 84.9089 22.7729 85.0299 25.4708C85.114 27.2799 85.4821 27.606 87.3018 27.9268C88.1485 28.0741 88.5114 28.3686 88.443 29.2626C88.3589 30.2934 87.6226 29.9831 87.0862 29.9884C82.7684 30.0094 78.4454 30.0042 74.1276 29.9989C73.7437 29.9989 73.3546 29.9568 72.876 29.9305V28.1319C73.6175 28.053 74.3801 27.9741 75.1479 27.89C76.0998 27.7848 76.6889 27.2799 76.7677 26.3175C76.894 24.8029 77.0412 23.283 77.0517 21.7631C77.0885 16.8353 77.0675 11.9075 77.0623 6.98491C77.0623 6.50633 77.0623 6.02249 76.9939 5.54916C76.7046 3.43499 76.3102 3.07211 74.1697 2.8933C73.1424 2.80564 72.7357 2.17981 72.9496 1.01578C73.4703 0.97371 74.0277 0.879046 74.5799 0.884305C80.2072 0.947414 85.8345 0.942156 91.4565 1.13149C97.2048 1.32607 99.3137 3.77683 99.0612 9.54085C98.9298 12.5912 97.6834 14.9157 94.8487 16.2252C94.0966 16.5723 93.9178 16.9562 94.2228 17.7346C95.1537 20.1275 95.8479 22.6256 96.9839 24.9133C97.5571 26.0651 98.751 27.0801 99.908 27.7165C100.928 28.2739 101.275 28.7525 100.87 29.9937ZM85.0351 3.22462V14.5633C88.0118 15.1524 89.9577 13.9796 90.31 11.1291C90.5204 9.43567 90.4625 7.62653 90.0944 5.9699C89.5685 3.60328 87.549 2.61982 85.0351 3.22462Z" fill="white"/>
<path d="M106.214 29.9779V28.1056C106.782 28.0636 107.334 27.9847 107.886 27.9952C109.274 28.0162 109.974 27.2747 110.174 25.981C110.263 25.4235 110.316 24.8555 110.316 24.2928C110.305 18.3657 110.279 12.4334 110.253 6.50634C110.253 6.06983 110.221 5.63333 110.163 5.20208C109.916 3.435 109.553 3.09842 107.749 2.90909C107.534 2.88805 107.313 2.8565 107.097 2.86176C106.387 2.89331 105.935 2.55147 106.14 1.86252C106.25 1.49438 106.766 0.989501 107.108 0.984241C112.125 0.93165 117.142 0.921134 122.154 0.973725C123.805 0.989502 125.467 1.11572 127.108 1.34186C129.59 1.68897 131.226 3.12997 131.947 5.53866C132.646 7.86846 132.562 10.193 131.747 12.4755C130.984 14.6107 129.275 15.7677 127.029 16.6565C128.207 19.6489 129.196 22.6204 130.563 25.4077C131.079 26.4543 132.388 27.2326 133.498 27.8269C134.282 28.2476 134.439 28.7473 134.229 29.3521C134.124 29.6624 133.498 29.9569 133.098 29.9674C130.569 30.0358 128.039 29.9726 125.509 30.062C124.51 30.0936 124.026 29.736 123.684 28.8314C122.291 25.1658 120.85 21.5159 119.398 17.8714C119.23 17.4454 118.888 17.0825 118.62 16.6775C118.367 16.8669 118.241 16.9194 118.241 16.9668C118.241 19.9645 118.21 22.9675 118.278 25.9652C118.304 27.2274 119.209 27.7743 120.371 27.89C121.197 27.9742 121.76 28.1477 121.67 29.2101C121.57 30.4144 120.724 30.02 120.129 30.0252C115.943 30.0515 111.751 30.041 107.565 30.0357C107.139 30.0357 106.713 29.9989 106.214 29.9726V29.9779ZM118.189 8.82563C118.189 10.4402 118.22 12.0547 118.173 13.6693C118.152 14.4634 118.452 14.7316 119.225 14.7579C121.302 14.8263 122.99 13.9217 123.327 11.8917C123.653 9.92478 123.621 7.81587 123.311 5.84369C123.027 4.04507 121.349 3.01427 119.561 2.9459C118.646 2.90909 118.078 3.10894 118.157 4.25017C118.257 5.77007 118.183 7.30048 118.183 8.83089L118.189 8.82563ZM115.422 12.0916H111.936L111.751 12.465C112.078 12.6543 112.435 13.0435 112.724 13.0014C113.582 12.8752 114.76 13.6114 115.422 12.0916ZM113.476 10.6821C114.144 10.4402 114.697 10.2403 115.244 10.0405C114.702 9.8459 114.165 9.50405 113.618 9.49354C113.04 9.48302 112.461 9.79331 111.878 9.9616C112.398 10.1983 112.919 10.4349 113.471 10.6821H113.476ZM115.38 23.2935C115.301 23.141 115.228 22.9938 115.149 22.8412H111.694C112.241 24.3506 113.398 23.6512 114.218 23.7616C114.576 23.8089 114.991 23.4618 115.375 23.2935H115.38ZM113.529 17.3034C112.956 17.5768 112.414 17.8398 111.872 18.1028C112.446 18.2605 113.019 18.5393 113.587 18.534C114.144 18.5235 114.697 18.2185 115.254 18.0449C114.723 17.8188 114.197 17.5926 113.529 17.3086V17.3034ZM113.661 14.3004C112.982 14.5108 112.414 14.6843 111.851 14.8631C112.446 15.0209 113.04 15.2839 113.639 15.3101C114.171 15.3312 114.707 15.084 115.244 14.9578C114.718 14.7422 114.186 14.5213 113.661 14.3057V14.3004ZM111.841 6.81663C111.883 7.15848 111.899 7.53714 111.93 7.53714C112.951 7.59499 113.971 7.62128 114.996 7.61602C115.065 7.61602 115.228 7.2584 115.18 7.21107C115.033 7.04278 114.818 6.83767 114.623 6.83241C113.718 6.7956 112.814 6.81663 111.836 6.81663H111.841ZM113.54 19.975C112.951 20.1959 112.404 20.3957 111.862 20.5956C112.414 20.7586 112.966 21.0584 113.513 21.0479C114.097 21.0426 114.681 20.7481 115.27 20.5798C114.718 20.3852 114.16 20.1906 113.54 19.9697V19.975ZM111.778 25.8337C111.836 25.9494 111.893 26.0704 111.951 26.1861C112.772 26.1861 113.592 26.2176 114.407 26.165C114.633 26.1492 114.839 25.8863 115.054 25.7338C114.828 25.5444 114.618 25.2236 114.371 25.1973C113.771 25.129 113.145 25.1342 112.551 25.2342C112.267 25.2815 112.035 25.6233 111.778 25.8337ZM111.899 4.40268C111.825 4.51839 111.746 4.63935 111.673 4.75505C111.936 4.92334 112.183 5.20207 112.461 5.22837C113.145 5.29674 113.85 5.28622 114.539 5.23363C114.781 5.21785 115.007 4.99171 115.238 4.86549C114.986 4.71298 114.744 4.4395 114.481 4.42372C113.624 4.36587 112.761 4.40268 111.899 4.40268ZM115.107 28.1372C115.107 28.011 115.107 27.89 115.107 27.7638C113.86 27.7954 112.614 27.3799 111.362 27.7007C111.362 27.8479 111.362 27.9952 111.362 28.1372H115.107ZM111.594 2.40947C111.604 2.50414 111.615 2.5988 111.625 2.69346H115.133C115.133 2.5988 115.133 2.50414 115.128 2.40947H111.594Z" fill="white"/>
<path d="M3.73924 2.90909V1.08417H19.8533C19.8796 1.65741 19.9058 2.19911 19.9374 2.89857C19.2485 2.97746 18.6226 3.1142 17.9915 3.1142C16.7872 3.1142 16.0824 3.67167 15.9352 4.84972C15.8142 5.79636 15.7353 6.75353 15.7248 7.70543C15.6985 10.4086 15.7143 13.1118 15.7143 15.8571C15.8931 15.8571 16.0509 15.9097 16.1245 15.8518C19.1485 13.4537 22.0674 10.9345 23.745 7.36885C24.15 6.51161 24.2183 5.3283 23.9975 4.39743C23.8712 3.86626 22.9088 3.32982 22.2356 3.17205C20.7 2.81969 20.6369 2.85124 21.0313 1.09994H35.6044C36.0777 2.69872 36.0199 2.83546 34.5263 3.12471C32.0492 3.59804 29.9298 4.74979 28.1364 6.49057C26.6954 7.88424 25.2754 9.30421 23.9133 10.782C23.6504 11.066 23.4821 11.7813 23.6504 12.081C25.8539 15.9833 28.0417 19.9014 30.4189 23.7037C32.0177 26.2649 34.5105 27.6797 37.6134 28.1688V30.0831C35.7622 30.0831 33.9425 30.0831 32.1281 30.0831C28.6834 30.0726 25.2334 30.0673 21.7886 30.0515C20.153 30.041 20.153 30.0252 20.3108 28.3265C20.3792 28.2687 20.437 28.1793 20.5106 28.1688C22.7563 27.7796 22.9509 27.6165 21.9148 25.5392C20.5632 22.8307 18.9645 20.2432 17.4761 17.6137C16.0299 18.3815 15.6144 19.2703 15.7143 20.5693C15.8248 22.0419 15.6617 23.5302 15.7038 25.0133C15.7722 27.2431 16.6715 28.1267 18.4175 28.0951C19.7533 28.0688 19.0644 29.0944 19.2379 29.878C18.4228 29.9411 17.7075 30.0463 16.987 30.0463C12.927 30.0673 8.87216 30.062 4.8121 30.0568C4.17049 30.0568 3.4868 30.162 3.45524 29.1259C3.42369 28.0583 4.04953 28.0793 4.80685 28.0636C6.98939 28.0215 7.58893 27.6113 7.67834 25.4077C7.85189 21.274 7.85189 17.1298 7.85715 12.9909C7.85715 10.3455 7.75197 7.70017 7.67834 5.06008C7.64152 3.6927 6.83687 3.15627 5.54838 3.12997C4.94884 3.11946 4.35456 3.00376 3.72872 2.93539L3.73924 2.90909ZM10.655 20.0381C10.045 20.259 9.45067 20.4746 8.86165 20.6903C9.46645 20.8533 10.0712 21.1531 10.6708 21.1478C11.2598 21.1478 11.8488 20.8375 12.4379 20.664C11.8751 20.4694 11.3124 20.2695 10.655 20.0434V20.0381ZM10.5341 8.05779C11.2177 7.78432 11.791 7.55817 12.3695 7.32677C11.7805 7.14796 11.1862 6.83241 10.5972 6.82715C9.99762 6.82715 9.39808 7.12167 8.79328 7.28996C9.35075 7.53714 9.91347 7.78432 10.5341 8.05779ZM10.655 24.0035C11.2598 23.73 11.812 23.4776 12.3695 23.2252C11.7647 23.0674 11.1599 22.7781 10.5551 22.7886C9.96606 22.7992 9.3823 23.1095 8.79853 23.2883C9.37704 23.5144 9.96081 23.7406 10.6498 24.0088L10.655 24.0035ZM10.6077 13.338C11.2861 13.0645 11.8646 12.8331 12.4431 12.6017C11.8541 12.4281 11.2651 12.1284 10.6708 12.1231C10.0712 12.1231 9.46645 12.4071 8.8669 12.5649C9.42437 12.8121 9.98184 13.0592 10.6077 13.338ZM10.6655 18.7286C11.244 18.5024 11.8278 18.2763 12.4063 18.0554C11.8068 17.8871 11.2072 17.5821 10.6129 17.5874C10.0292 17.5926 9.45067 17.9187 8.8669 18.1028C9.42963 18.2973 9.9871 18.4919 10.6655 18.7286ZM10.7497 10.7768C11.2756 10.4928 11.8278 10.193 12.38 9.89324C11.7805 9.73546 11.1757 9.43568 10.5814 9.46724C10.0029 9.49354 9.44015 9.85641 8.87216 10.0668C9.42437 10.2771 9.97132 10.4823 10.7497 10.7768ZM12.5483 14.779H8.79328C9.46119 15.6783 11.628 15.7151 12.5483 14.779ZM10.5551 26.449C11.1599 26.2334 11.7174 26.0335 12.2696 25.8337C11.7121 25.6759 11.1494 25.3972 10.5919 25.4024C10.045 25.4024 9.498 25.697 8.95105 25.86C9.46645 26.0493 9.98184 26.2387 10.5498 26.449H10.5551ZM12.643 4.41321C11.2809 4.41321 10.3763 4.39743 9.47171 4.42898C9.31393 4.43424 9.16668 4.64987 9.0089 4.77083C9.16142 4.93912 9.30341 5.24415 9.46119 5.25467C10.2816 5.29674 11.1126 5.29674 11.933 5.23363C12.1118 5.21785 12.2591 4.87075 12.643 4.41847V4.41321ZM12.4747 28.2213C12.4747 28.1214 12.4747 28.0215 12.4799 27.9216H8.58291C8.58291 28.0215 8.58291 28.1214 8.58291 28.2213H12.4694H12.4747ZM9.31393 2.51465C9.29815 2.60932 9.28764 2.70398 9.27186 2.79865L12.4642 2.96694C12.4747 2.81443 12.4799 2.66717 12.4905 2.51465H9.31919H9.31393Z" fill="white"/>
<path d="M202.209 2.84595V0.910583H227.321C227.363 1.22087 227.453 1.54694 227.453 1.87301C227.463 4.88124 227.479 7.88947 227.437 10.8977C227.437 11.2921 227.127 11.6813 226.964 12.0705C226.569 11.8023 226.069 11.6182 225.796 11.2553C224.245 9.22529 222.84 7.0743 221.199 5.1179C219.406 2.98795 216.966 2.56196 214.236 3.06684V14.0374C215.372 13.4799 216.408 13.2065 217.124 12.5701C217.981 11.8075 218.67 10.7978 219.243 9.78802C219.69 9.00966 220.106 8.64153 221.036 9.09381V20.5272C220.053 20.9164 219.611 20.4588 219.217 19.6331C218.049 17.1982 216.44 15.9938 214.273 15.9149C214.215 16.3041 214.11 16.7091 214.105 17.1193C214.089 20.3431 214.121 23.5722 214.079 26.7961C214.068 27.6639 214.384 27.9268 215.209 27.9478C217.781 28.0162 219.953 27.0275 221.636 25.2131C223.109 23.6301 224.308 21.7894 225.612 20.0539C225.901 19.67 226.075 19.1914 226.411 18.8706C226.616 18.676 227.074 18.576 227.342 18.6655C227.574 18.7391 227.858 19.1388 227.858 19.3965C227.889 22.6203 227.868 25.8494 227.873 29.0733C227.873 29.9726 227.263 29.9989 226.622 29.9989C224.744 29.9989 222.872 29.9989 220.994 29.9989C215.236 29.9989 209.477 29.9989 203.718 29.9989C203.245 29.9989 202.771 29.9989 202.34 29.9989C201.814 28.2529 201.893 28.1214 203.513 27.8953C205.79 27.5797 206.153 27.3273 206.185 25.0501C206.264 18.5971 206.269 12.1441 206.216 5.69115C206.195 3.44023 205.59 2.96691 203.355 2.88802C203.013 2.8775 202.677 2.85647 202.225 2.84069L202.209 2.84595Z" fill="white"/>
<path d="M191.028 3.63481C192.374 2.80912 193.068 0.831684 195.141 0.36888V11.8128C194.236 12.2966 193.952 11.7234 193.526 11.0975C192.111 9.02017 190.818 6.80607 189.098 5.00744C186.679 2.4778 183.586 1.36812 180.026 2.32528C178.422 2.75653 177.628 3.77155 177.465 5.4124C177.338 6.68511 177.985 7.85264 179.495 8.43641C181.151 9.07276 182.903 9.47772 184.622 9.95104C186.684 10.5138 188.798 10.9082 190.807 11.6077C197.302 13.8638 199.711 21.6211 195.74 27.2852C193.61 30.325 189.271 31.624 185.011 30.509C182.845 29.941 180.993 28.8156 179.395 27.2957C178.559 26.5016 177.964 26.5489 177.259 27.4167C176.628 28.195 175.945 28.9418 175.198 29.5992C174.851 29.9042 174.288 29.9568 173.82 30.1199C173.699 29.7307 173.483 29.3468 173.478 28.9576C173.452 25.4234 173.468 21.8946 173.478 18.3604C173.478 18.2342 173.52 18.108 173.552 17.9397C174.446 17.4979 174.956 17.8397 175.377 18.6865C176.576 21.1162 177.854 23.4986 179.947 25.3183C182.387 27.4429 185.075 28.9313 188.43 28.8419C190.96 28.7735 192.553 27.7217 192.8 25.9283C193.058 24.0824 191.901 22.6361 189.398 21.984C186.952 21.3423 184.459 20.9111 181.998 20.3273C180.941 20.0749 179.9 19.733 178.885 19.3334C173.441 17.1718 171.201 11.7339 173.42 6.11186C175.456 0.957903 180.794 -1.3456 186.147 0.800129C187.851 1.48382 189.361 2.65135 191.038 3.64533L191.028 3.63481ZM191.443 16.0096C191.485 15.8518 191.528 15.694 191.57 15.5363C190.818 15.3469 190.071 15.0156 189.313 14.9946C186.742 14.9157 184.165 14.942 181.588 14.9367C179.868 14.9367 178.148 14.9367 176.429 14.9367C176.392 15.1103 176.355 15.2786 176.323 15.4521C176.744 15.6414 177.16 15.9885 177.58 15.9885C182.203 16.0254 186.826 16.0148 191.449 16.0148L191.443 16.0096ZM180.057 17.4821C180.057 17.6767 180.057 17.8766 180.057 18.0712C184.822 18.8863 189.634 18.292 194.467 18.1711C194.036 17.7346 193.558 17.4716 193.079 17.4664C189.897 17.4401 186.721 17.4664 183.539 17.4821C182.377 17.4821 181.22 17.4821 180.057 17.4821ZM175.145 12.5228C175.498 13.4904 179.132 13.8218 181.751 13.2012C179.505 12.2125 177.365 12.3177 175.145 12.5228ZM189.934 20.1327C189.924 20.2432 189.913 20.3589 189.902 20.4693C191.533 21.2372 193.274 21.2266 195.025 21.0426C195.183 21.0268 195.304 20.7112 195.446 20.5377C195.204 20.401 194.967 20.1538 194.72 20.1485C193.126 20.1117 191.528 20.1327 189.929 20.1327H189.934ZM176.765 11.1291C176.25 9.75645 175.624 9.63023 174.193 10.6189C175.161 10.8083 175.834 10.945 176.765 11.1291Z" fill="white"/>
<path d="M154.682 0.87379C154.635 1.65214 154.598 2.20435 154.561 2.79338C154.287 2.84597 154.082 2.90908 153.872 2.92486C150.906 3.08789 150.343 3.65062 150.333 6.67462C150.312 11.471 150.317 16.2673 150.354 21.0584C150.364 22.3153 150.39 23.6038 150.653 24.8239C151.001 26.4385 151.742 27.9742 153.52 28.4054C155.487 28.884 157.438 28.4107 158.526 26.6962C159.499 25.1658 160.367 23.3198 160.504 21.558C160.851 17.0509 160.888 12.507 160.814 7.97889C160.767 5.03377 159.526 3.69795 156.749 2.77234C156.412 0.963196 156.475 0.847495 158.216 0.836976C160.919 0.81594 163.622 0.836976 166.331 0.852753C166.452 0.852753 166.573 0.931643 166.704 0.978975C167.025 2.0308 166.92 2.76708 165.7 3.20359C164.222 3.73476 163.391 5.00748 163.212 6.49056C162.923 8.9045 162.749 11.3395 162.723 13.7692C162.686 17.2087 162.912 20.6429 161.897 24.0193C160.672 28.1056 158.374 30.1777 154.151 30.6984C153.115 30.8246 152.058 30.8772 151.022 30.8351C147.43 30.6774 144.874 28.9155 143.643 25.555C143.054 23.9404 142.675 22.1786 142.607 20.4641C142.449 16.4198 142.56 12.365 142.507 8.31022C142.491 7.05328 142.349 5.79635 142.202 4.54993C142.086 3.59803 141.508 3.09841 140.509 3.09315C140.03 3.09315 139.557 2.94063 139.083 2.92486C138.2 2.90382 138.163 2.33057 138.168 1.66792C138.173 0.926383 138.631 0.863274 139.215 0.863274C143.27 0.873792 147.33 0.868534 151.384 0.868534C152.42 0.868534 153.462 0.868534 154.682 0.868534V0.87379Z" fill="white"/>
<path d="M53.7854 29.9305C53.3489 28.6368 53.7065 28.0688 55.0738 27.89C56.8357 27.6638 57.0986 27.0801 56.5727 25.3708C55.9521 23.3443 54.583 22.3311 52.4653 22.3311C51.2452 22.3311 50.0251 22.3468 48.7997 22.3311C47.9687 22.3205 47.6479 22.6782 47.6795 23.5249C47.7742 26.165 48.6472 27.4009 51.1821 27.9952C52.4653 28.2949 51.8921 29.1311 51.9973 29.9516H40.506C40.201 28.905 40.4324 28.3317 41.4211 27.7112C42.5466 27.0117 43.7562 26.0019 44.2716 24.8344C47.0957 18.4183 49.72 11.9127 52.4075 5.43344C52.9755 4.06606 53.4751 2.66713 54.0956 1.32605C54.306 0.87902 54.8004 0.563473 55.1633 0.184814C55.5209 0.568732 56.0363 0.894799 56.2203 1.35234C59.2444 8.91499 62.2578 16.4882 65.203 24.0824C66.0549 26.2754 67.2488 27.9321 69.8678 28.0846V29.9305H53.7801H53.7854ZM54.5585 20.2747C53.5434 17.682 52.5915 15.2417 51.6396 12.8015C51.5344 12.8015 51.4293 12.8015 51.3241 12.8015C50.3827 15.2417 49.4413 17.6767 48.4368 20.2747H54.5585Z" fill="white"/>
<path d="M236.341 0.968445H252.297C252.723 2.30953 252.423 2.86174 251.05 2.88803C249.136 2.93011 248.568 3.49284 248.353 5.37035C248.205 6.62203 248.174 7.88948 248.168 9.15168C248.153 14.9525 248.19 20.7481 248.137 26.5489C248.126 27.6691 248.537 28.0004 249.562 27.9847C251.813 27.9479 253.822 27.18 255.326 25.576C256.893 23.9036 258.208 21.9945 259.623 20.1801C259.86 19.8751 259.965 19.4386 260.243 19.1914C260.533 18.9337 260.959 18.8232 261.327 18.6497C261.474 18.9758 261.742 19.2966 261.742 19.6279C261.774 22.9832 261.763 26.3333 261.763 29.8096H236.42C236.036 28.1319 236.083 28.0636 237.74 27.8374C239.817 27.5587 240.275 27.1274 240.275 24.9975C240.28 18.4604 240.248 11.918 240.185 5.38087C240.164 3.43498 239.675 2.99847 237.792 2.867C236.663 2.78986 236.183 2.15701 236.351 0.968445H236.341ZM243.362 25.1658C243.099 25.1658 242.815 25.0974 242.583 25.1815C242.315 25.2815 242.099 25.5181 241.858 25.6969C242.115 25.8547 242.357 26.1019 242.636 26.1492C243.104 26.2229 243.598 26.2229 244.066 26.1492C244.35 26.1019 244.598 25.8547 244.866 25.6917C244.582 25.5181 244.314 25.3025 244.009 25.1815C243.819 25.1079 243.577 25.1658 243.362 25.171V25.1658ZM241.752 4.78132C242.157 6.33277 243.256 5.63857 243.993 5.71219C244.34 5.74375 244.729 5.3125 245.102 5.09162C245.034 4.98643 244.966 4.88125 244.897 4.78132H241.752ZM243.351 23.5933C243.383 23.6669 243.414 23.7405 243.441 23.8089C243.914 23.5775 244.392 23.3514 244.871 23.12C244.356 22.9306 243.851 22.7097 243.325 22.573C243.046 22.4994 242.704 22.5257 242.431 22.6151C242.241 22.6782 241.994 22.9359 241.994 23.1094C241.994 23.2672 242.257 23.5144 242.452 23.5722C242.731 23.6511 243.051 23.5933 243.351 23.5933ZM243.43 15.8623L243.514 16.0411C243.966 15.8308 244.413 15.6152 244.866 15.4048C244.398 15.247 243.93 15.084 243.451 14.9367C243.33 14.8999 243.178 14.8947 243.067 14.9367C242.715 15.0682 242.373 15.226 242.026 15.3732C242.362 15.5363 242.699 15.7098 243.041 15.8518C243.151 15.8992 243.299 15.8571 243.43 15.8571V15.8623ZM243.377 10.8872C243.419 10.9608 243.456 11.0292 243.498 11.1028C243.951 10.8399 244.403 10.5822 244.855 10.3192C244.366 10.1772 243.882 10.0037 243.383 9.90373C243.093 9.84588 242.767 9.86166 242.478 9.93003C242.315 9.96684 242.063 10.2035 242.084 10.2982C242.131 10.498 242.294 10.761 242.473 10.8241C242.746 10.9187 243.072 10.8714 243.372 10.8872H243.377ZM243.435 13.3695C243.456 13.4274 243.477 13.4799 243.498 13.5378C243.961 13.3485 244.424 13.1591 244.882 12.9751C244.408 12.8226 243.94 12.6595 243.462 12.5228C243.346 12.486 243.193 12.486 243.078 12.5228C242.72 12.6437 242.373 12.791 242.021 12.9225C242.362 13.0697 242.699 13.2328 243.046 13.3642C243.157 13.4063 243.299 13.3695 243.43 13.3695H243.435ZM242.042 7.2426C241.994 7.3583 241.947 7.47926 241.905 7.59496C242.115 7.77378 242.315 8.07355 242.541 8.09985C243.141 8.17347 243.756 8.1577 244.361 8.11036C244.561 8.09459 244.745 7.87896 244.934 7.75274C244.734 7.58445 244.55 7.28468 244.34 7.2689C243.577 7.21105 242.809 7.24786 242.047 7.24786L242.042 7.2426ZM244.871 18.0922C244.072 17.1351 243.02 17.6136 242.042 17.6873C242.804 18.8443 243.888 18.1974 244.871 18.0922ZM243.477 20.1328C243.262 20.1328 243.025 20.0802 242.83 20.1433C242.546 20.2379 242.289 20.4115 242.026 20.5535C242.278 20.7113 242.515 20.9479 242.794 21.0058C243.167 21.0847 243.583 21.0794 243.961 21.011C244.287 20.9532 244.592 20.7533 244.903 20.6113C244.603 20.4536 244.314 20.2695 243.998 20.1433C243.851 20.0854 243.656 20.1328 243.483 20.1328H243.477ZM245.039 3.22462C245.039 3.13521 245.029 3.05107 245.029 2.96166H241.432C241.437 3.05107 241.442 3.13521 241.447 3.22462H245.039ZM244.824 27.9741C244.818 27.7901 244.813 27.606 244.803 27.4219C243.709 27.4903 242.615 27.5639 241.521 27.6323L241.542 27.9741H244.824Z" fill="white"/>
<path d="M115.422 12.0916C114.76 13.6167 113.587 12.8804 112.725 13.0014C112.43 13.0435 112.078 12.6543 111.752 12.465L111.936 12.0916H115.422Z" fill="#5995CE"/>
<path d="M113.477 10.6821C112.93 10.4349 112.404 10.1983 111.883 9.9616C112.462 9.79331 113.045 9.48828 113.624 9.49354C114.166 9.50405 114.707 9.8459 115.249 10.0405C114.697 10.2403 114.144 10.4402 113.482 10.6821H113.477Z" fill="#5995CD"/>
<path d="M115.38 23.2935C114.991 23.4618 114.581 23.8089 114.223 23.7615C113.403 23.6511 112.241 24.3506 111.699 22.8412H115.154C115.233 22.9937 115.307 23.141 115.386 23.2935H115.38Z" fill="#5995CD"/>
<path d="M113.529 17.3034C114.192 17.5874 114.723 17.8135 115.254 18.0396C114.697 18.2132 114.144 18.5182 113.587 18.5287C113.019 18.5393 112.446 18.2553 111.872 18.0975C112.414 17.8345 112.956 17.5768 113.529 17.2981V17.3034Z" fill="#5995CD"/>
<path d="M113.661 14.3004C114.187 14.516 114.718 14.7369 115.244 14.9525C114.707 15.0787 114.166 15.3259 113.64 15.3049C113.04 15.2786 112.446 15.0209 111.852 14.8578C112.42 14.6843 112.982 14.5055 113.661 14.2951V14.3004Z" fill="#5995CE"/>
<path d="M111.841 6.81659C112.819 6.81659 113.724 6.79555 114.628 6.83237C114.823 6.84289 115.039 7.04799 115.186 7.21103C115.228 7.25836 115.07 7.61598 115.002 7.61598C113.982 7.61598 112.956 7.58969 111.936 7.5371C111.899 7.5371 111.883 7.15844 111.846 6.81659H111.841Z" fill="#5995CE"/>
<path d="M113.54 19.975C114.16 20.1959 114.713 20.3904 115.27 20.585C114.686 20.7533 114.102 21.0426 113.513 21.0531C112.966 21.0584 112.414 20.7638 111.862 20.6008C112.404 20.401 112.945 20.2011 113.54 19.9802V19.975Z" fill="#5995CE"/>
<path d="M111.778 25.8337C112.036 25.6233 112.267 25.2867 112.551 25.2341C113.145 25.1289 113.771 25.1289 114.371 25.1973C114.618 25.2236 114.828 25.5444 115.054 25.7337C114.839 25.8863 114.634 26.1492 114.407 26.165C113.592 26.2176 112.772 26.186 111.951 26.186C111.894 26.0703 111.836 25.9494 111.778 25.8337Z" fill="#5995CE"/>
<path d="M111.899 4.40266C112.761 4.40266 113.624 4.36584 114.481 4.42369C114.744 4.43947 114.986 4.71295 115.238 4.86547C115.007 4.99694 114.781 5.21783 114.539 5.2336C113.85 5.28619 113.151 5.29671 112.462 5.22834C112.188 5.20205 111.936 4.91806 111.673 4.75502C111.746 4.63932 111.825 4.51836 111.899 4.40266Z" fill="#5995CE"/>
<path d="M115.107 28.1372H111.362C111.362 27.9899 111.362 27.8427 111.362 27.7007C112.614 27.3799 113.855 27.8006 115.107 27.7638C115.107 27.89 115.107 28.011 115.107 28.1372Z" fill="#5995CE"/>
<path d="M111.594 2.40942H115.128C115.128 2.50409 115.128 2.59875 115.133 2.69341H111.625C111.615 2.59875 111.604 2.50409 111.594 2.40942Z" fill="#5995CE"/>
<path d="M10.6551 20.0381C11.3125 20.2695 11.8752 20.4641 12.4379 20.6587C11.8489 20.8322 11.2599 21.1425 10.6708 21.1425C10.066 21.1425 9.46124 20.848 8.86169 20.685C9.45598 20.4693 10.045 20.2537 10.6551 20.0328V20.0381Z" fill="#DA3A32"/>
<path d="M10.534 8.0578C9.91341 7.78432 9.35594 7.53714 8.79321 7.28996C9.39276 7.12167 9.99756 6.8219 10.5971 6.82716C11.1914 6.82716 11.7804 7.14797 12.3694 7.32678C11.7909 7.55818 11.2177 7.78432 10.534 8.0578Z" fill="#DA3A32"/>
<path d="M10.6551 24.0035C9.9661 23.7353 9.38234 23.5091 8.80383 23.283C9.3876 23.1042 9.97136 22.7939 10.5604 22.7834C11.1599 22.7728 11.77 23.0621 12.3748 23.2199C11.8173 23.4723 11.2599 23.7247 10.6603 23.9982L10.6551 24.0035Z" fill="#DA3A32"/>
<path d="M10.6077 13.3379C9.98188 13.0592 9.42441 12.812 8.86694 12.5648C9.46649 12.407 10.0713 12.1178 10.6708 12.1231C11.2651 12.1231 11.8541 12.4281 12.4432 12.6016C11.8647 12.833 11.2861 13.0644 10.6077 13.3379Z" fill="#DA3A32"/>
<path d="M10.6656 18.7286C9.98714 18.4919 9.42967 18.2973 8.86694 18.1027C9.45071 17.9187 10.0292 17.5926 10.613 17.5873C11.2073 17.5821 11.8121 17.8871 12.4063 18.0554C11.8278 18.2816 11.2441 18.5077 10.6656 18.7286Z" fill="#DA3A32"/>
<path d="M10.7497 10.7767C9.97661 10.4822 9.4244 10.2771 8.87219 10.0667C9.44018 9.85112 10.0029 9.49349 10.5814 9.4672C11.1704 9.4409 11.7805 9.74068 12.38 9.8932C11.8278 10.193 11.2756 10.4927 10.7497 10.7767Z" fill="#DA3A32"/>
<path d="M12.5482 14.7789C11.6332 15.7151 9.46112 15.6782 8.79321 14.7789H12.5482Z" fill="#DA3A32"/>
<path d="M10.5551 26.449C9.98183 26.2386 9.46644 26.0493 8.9563 25.86C9.50325 25.6969 10.0502 25.4024 10.5972 25.4024C11.1546 25.4024 11.7121 25.6811 12.2748 25.8337C11.7173 26.0335 11.1651 26.2334 10.5603 26.449H10.5551Z" fill="#DA3A32"/>
<path d="M12.6431 4.4132C12.2592 4.86548 12.1119 5.21258 11.9331 5.22836C11.1127 5.29147 10.2817 5.29147 9.46132 5.2494C9.30355 5.23888 9.16155 4.93385 9.00903 4.76556C9.16155 4.6446 9.31406 4.42897 9.47184 4.42371C10.3764 4.39216 11.2862 4.40794 12.6431 4.40794V4.4132Z" fill="#DA3A32"/>
<path d="M12.4748 28.2213H8.58826C8.58826 28.1214 8.58826 28.0215 8.58826 27.9216H12.4853C12.4853 28.0215 12.4853 28.1214 12.48 28.2213H12.4748Z" fill="#DA3A32"/>
<path d="M9.31406 2.51465H12.4853C12.4748 2.66716 12.4695 2.81442 12.459 2.96694L9.26672 2.79864C9.2825 2.70398 9.29302 2.60931 9.3088 2.51465H9.31406Z" fill="#DA3A32"/>
<path d="M191.443 16.0096C186.821 16.0096 182.198 16.0253 177.575 15.9833C177.154 15.9833 176.739 15.6309 176.318 15.4468C176.355 15.2733 176.392 15.105 176.423 14.9314C178.143 14.9314 179.863 14.9314 181.582 14.9314C184.159 14.9367 186.736 14.9104 189.308 14.9893C190.065 15.0103 190.812 15.3416 191.564 15.531C191.522 15.6887 191.48 15.8465 191.438 16.0043L191.443 16.0096Z" fill="#DE8BB5"/>
<path d="M180.057 17.4822C181.22 17.4822 182.377 17.4822 183.539 17.4822C186.721 17.4716 189.897 17.4401 193.079 17.4664C193.558 17.4664 194.036 17.7346 194.467 18.1711C189.634 18.2921 184.822 18.8916 180.057 18.0712C180.057 17.8766 180.057 17.6768 180.057 17.4822Z" fill="#DE8BB5"/>
<path d="M175.145 12.5228C177.365 12.3229 179.505 12.2125 181.751 13.2012C179.132 13.8218 175.498 13.4852 175.145 12.5228Z" fill="#DE8BB5"/>
<path d="M189.934 20.1327C191.533 20.1327 193.126 20.117 194.725 20.1485C194.967 20.1538 195.209 20.4009 195.451 20.5377C195.314 20.7112 195.188 21.0268 195.03 21.0426C193.274 21.2266 191.533 21.2372 189.908 20.4693C189.918 20.3589 189.929 20.2432 189.939 20.1327H189.934Z" fill="#DE8BB5"/>
<path d="M176.765 11.1291C175.84 10.9451 175.161 10.8136 174.193 10.619C175.624 9.63028 176.25 9.75124 176.765 11.1291Z" fill="#DE8BB5"/>
<path d="M243.362 25.1657C243.577 25.1657 243.824 25.1026 244.009 25.1815C244.314 25.3025 244.582 25.5181 244.866 25.6916C244.603 25.8494 244.35 26.1018 244.066 26.1492C243.598 26.2281 243.104 26.2281 242.636 26.1492C242.357 26.1071 242.115 25.8547 241.858 25.6969C242.099 25.5181 242.315 25.2867 242.583 25.1815C242.815 25.0973 243.099 25.1657 243.362 25.1605V25.1657Z" fill="#E1C949"/>
<path d="M241.752 4.78131H244.897C244.966 4.88649 245.034 4.99168 245.103 5.0916C244.729 5.31249 244.34 5.74374 243.993 5.71218C243.257 5.63855 242.157 6.33276 241.752 4.78131Z" fill="#E1C949"/>
<path d="M243.351 23.5933C243.046 23.5933 242.731 23.6511 242.452 23.5723C242.257 23.5197 241.994 23.2725 241.994 23.1095C241.994 22.9359 242.241 22.6835 242.431 22.6151C242.704 22.5204 243.046 22.4994 243.325 22.573C243.851 22.7098 244.356 22.9306 244.871 23.12C244.392 23.3514 243.919 23.5775 243.441 23.8089C243.409 23.7353 243.377 23.6617 243.351 23.5933Z" fill="#E1C949"/>
<path d="M243.43 15.8623C243.299 15.8623 243.157 15.8991 243.041 15.8571C242.694 15.7151 242.362 15.5415 242.026 15.3785C242.373 15.2312 242.715 15.0734 243.067 14.942C243.183 14.8999 243.335 14.9052 243.451 14.942C243.924 15.084 244.392 15.2523 244.866 15.41C244.414 15.6204 243.967 15.836 243.514 16.0464L243.43 15.8676V15.8623Z" fill="#E1C949"/>
<path d="M243.377 10.8872C243.072 10.8714 242.752 10.924 242.478 10.8241C242.299 10.761 242.136 10.498 242.089 10.2981C242.068 10.2035 242.32 9.96682 242.483 9.93001C242.773 9.86164 243.093 9.84586 243.388 9.90371C243.888 10.0036 244.371 10.1772 244.86 10.3192C244.408 10.5821 243.956 10.8398 243.504 11.1028C243.462 11.0292 243.425 10.9608 243.383 10.8872H243.377Z" fill="#E1C949"/>
<path d="M243.435 13.3695C243.309 13.3695 243.167 13.4063 243.051 13.3642C242.704 13.2328 242.368 13.0697 242.026 12.9225C242.378 12.7857 242.725 12.6385 243.083 12.5228C243.199 12.486 243.346 12.486 243.467 12.5228C243.94 12.6648 244.414 12.8226 244.887 12.9751C244.424 13.1644 243.961 13.3537 243.504 13.5378C243.483 13.4799 243.462 13.4274 243.441 13.3695H243.435Z" fill="#E1C949"/>
<path d="M242.042 7.24262C242.804 7.24262 243.572 7.20581 244.335 7.26366C244.545 7.27944 244.734 7.57921 244.929 7.7475C244.739 7.87372 244.555 8.08935 244.356 8.10512C243.751 8.15246 243.135 8.16823 242.536 8.09461C242.304 8.06831 242.11 7.76854 241.9 7.58973C241.947 7.47403 241.994 7.35307 242.036 7.23737L242.042 7.24262Z" fill="#E1C949"/>
<path d="M244.871 18.0922C243.887 18.1922 242.804 18.8443 242.042 17.6873C243.02 17.6136 244.072 17.1403 244.871 18.0922Z" fill="#E1C949"/>
<path d="M243.477 20.1327C243.651 20.1327 243.845 20.0801 243.993 20.1432C244.308 20.2695 244.597 20.4535 244.897 20.6113C244.582 20.748 244.282 20.9479 243.956 21.011C243.577 21.0794 243.167 21.0846 242.788 21.0057C242.515 20.9479 242.278 20.7112 242.021 20.5535C242.289 20.4115 242.546 20.2379 242.825 20.1432C243.02 20.0801 243.256 20.1327 243.472 20.1327H243.477Z" fill="#E1C949"/>
<path d="M245.039 3.22463H241.447C241.442 3.13522 241.437 3.05108 241.432 2.96167H245.029C245.029 3.05108 245.039 3.13522 245.039 3.22463Z" fill="#E1C949"/>
<path d="M244.824 27.9741H241.542L241.521 27.6323C242.615 27.5639 243.709 27.4903 244.803 27.4219C244.808 27.606 244.813 27.7901 244.824 27.9741Z" fill="#E1C949"/>
</svg>
