<svg width="262" height="158" viewBox="0 0 262 158" fill="none" xmlns="http://www.w3.org/2000/svg">
<path d="M10.627 19.9753C11.2823 20.206 11.8433 20.4 12.4043 20.594C11.8171 20.767 11.2299 21.0763 10.6427 21.0763C10.0398 21.0763 9.4369 20.7827 8.83923 20.6202C9.43166 20.4052 10.0188 20.1903 10.627 19.9701V19.9753Z" fill="#DA3A32"/>
<path d="M10.5063 8.02739C9.88769 7.75477 9.33196 7.50836 8.771 7.26196C9.36866 7.09419 9.97157 6.79536 10.5692 6.80061C11.1617 6.80061 11.7488 7.12041 12.336 7.29866C11.7593 7.52934 11.1879 7.75477 10.5063 8.02739Z" fill="#DA3A32"/>
<path d="M10.6269 23.9284C9.94013 23.661 9.35819 23.4356 8.78149 23.2101C9.36343 23.0319 9.94537 22.7226 10.5326 22.7121C11.1302 22.7016 11.7384 22.9899 12.3413 23.1472C11.7856 23.3989 11.2298 23.6505 10.6322 23.9231L10.6269 23.9284Z" fill="#DA3A32"/>
<path d="M10.5746 13.291C9.95068 13.0131 9.39496 12.7667 8.83923 12.5203C9.4369 12.363 10.0398 12.0747 10.6375 12.0799C11.2299 12.0799 11.8171 12.384 12.4043 12.557C11.8276 12.7877 11.2509 13.0183 10.5746 13.291Z" fill="#DA3A32"/>
<path d="M10.6322 18.67C9.95592 18.434 9.4002 18.2401 8.83923 18.0461C9.42117 17.8626 9.99787 17.5375 10.5798 17.5323C11.1722 17.5271 11.7751 17.8311 12.3676 17.9989C11.7909 18.2243 11.2089 18.4498 10.6322 18.67Z" fill="#DA3A32"/>
<path d="M10.7214 10.7431C9.95069 10.4495 9.40021 10.245 8.84973 10.0353C9.41594 9.82037 9.97691 9.46387 10.5536 9.43765C11.1408 9.41144 11.7489 9.71027 12.3466 9.86231C11.7961 10.1611 11.2456 10.46 10.7214 10.7431Z" fill="#DA3A32"/>
<path d="M12.509 14.7327C11.5968 15.6659 9.43157 15.6292 8.76575 14.7327H12.509Z" fill="#DA3A32"/>
<path d="M10.522 26.3662C9.95055 26.1565 9.43676 25.9677 8.92822 25.779C9.47346 25.6165 10.0187 25.3229 10.5639 25.3229C11.1197 25.3229 11.6754 25.6007 12.2364 25.7528C11.6806 25.952 11.1301 26.1512 10.5272 26.3662H10.522Z" fill="#DA3A32"/>
<path d="M12.6034 4.39932C12.2207 4.85019 12.0739 5.1962 11.8956 5.21193C11.0778 5.27484 10.2494 5.27484 9.43158 5.2329C9.2743 5.22242 9.13275 4.91834 8.98071 4.75058C9.13275 4.62999 9.28479 4.41504 9.44207 4.4098C10.3438 4.37834 11.2508 4.39407 12.6034 4.39407V4.39932Z" fill="#DA3A32"/>
<path d="M12.4409 28.1278H8.56653C8.56653 28.0282 8.56653 27.9286 8.56653 27.829H12.4514C12.4514 27.9286 12.4514 28.0282 12.4461 28.1278H12.4409Z" fill="#DA3A32"/>
<path d="M9.2901 2.50684H12.4514C12.441 2.65887 12.4357 2.80567 12.4252 2.95771L9.24292 2.78994C9.25865 2.69557 9.26913 2.6012 9.28486 2.50684H9.2901Z" fill="#DA3A32"/>
<path d="M132.661 157.879C130.113 153.79 127.481 149.742 125.033 145.59C122.768 141.752 121.012 137.679 120.314 133.233C119.706 129.359 120.047 125.678 122.768 122.549C123.193 122.056 123.554 121.505 123.948 120.986C125.468 118.984 125.541 118.695 125.206 115.896C123.166 115.801 121.101 115.728 119.035 115.607C117.735 115.534 116.435 115.35 115.135 115.293C114.034 115.245 113.703 114.742 113.672 113.662C113.588 110.711 113.352 107.759 113.231 104.807C113.2 104.047 112.917 103.685 112.22 103.376C98.4261 97.2736 84.7794 90.8041 70.8024 85.142C63.3578 82.1275 56.4375 77.8966 48.6049 75.789C46.8014 75.3067 45.171 74.1481 43.5038 73.2096C42.2613 72.5124 41.2599 72.5229 40.2795 73.6658C38.366 75.8887 35.6817 76.2137 33.0079 76.2452C30.1087 76.2819 27.2934 75.6842 24.714 74.2844C21.2224 72.3865 19.5552 69.005 20.2787 65.0992C20.4832 64.0035 20.242 63.4163 19.2249 62.9602C12.8079 60.0872 6.40656 57.1723 0 54.2731C0 53.9271 0 53.5758 0 53.2298C0.786402 49.9374 1.57805 46.645 2.36445 43.3526C2.86775 41.2398 3.41823 39.1374 3.85337 37.0089C4.04211 36.0914 4.51395 35.7769 5.36851 35.7821C6.71588 35.7874 8.06849 35.7716 9.41586 35.7716C14.5851 35.7716 19.7544 35.7454 24.9237 35.8293C25.5214 35.8398 26.4074 36.3221 26.6486 36.8307C27.2253 38.026 27.5293 39.3576 27.8858 40.6473C28.0903 41.3918 28.1794 42.1677 28.5936 42.9384C28.5936 42.3879 28.5779 41.8374 28.5936 41.2869C28.646 39.6407 28.6355 37.9893 28.819 36.3641C28.8662 35.9604 29.5687 35.3155 29.9619 35.3208C36.8298 35.3994 43.703 35.5881 50.5709 35.6825C51.7872 35.6982 52.4478 36.2068 52.7519 37.2763C53.2709 39.106 53.7427 40.9514 54.4295 42.8545C54.5396 41.9108 54.6707 40.9724 54.7598 40.0287C54.8804 38.7757 54.9486 37.5175 55.0796 36.2645C55.1635 35.4885 55.5882 35.2369 56.4218 35.2683C60.6788 35.4151 64.9359 35.4571 69.1929 35.5881C72.0135 35.6773 74.8341 35.866 77.6546 35.9761C78.5354 36.0076 78.8447 36.4532 78.9705 37.2606C79.2117 38.8386 79.5263 40.4114 79.8094 41.9842C79.9404 42 80.0715 42.0209 80.2026 42.0366C80.601 40.6264 81.162 39.2423 81.3612 37.8058C81.5709 36.2697 82.3416 35.8031 83.7466 35.7926C88.486 35.7559 93.2254 35.6773 97.9648 35.6144C98.9661 35.6039 99.9675 35.6248 100.969 35.5934C103.008 35.5357 104.308 36.5476 104.717 38.5974C104.869 39.3629 104.932 40.144 105.037 40.92C105.142 41.6697 105.247 42.4194 105.656 43.1953C105.776 42.7234 105.897 42.2464 106.012 41.7745C106.337 40.4691 106.599 39.1427 106.993 37.8582C107.59 35.8975 107.915 35.5829 109.923 35.5357C116.183 35.3994 122.443 35.3575 128.697 35.2526C129.405 35.2421 129.688 35.5147 129.851 36.1701C130.16 37.4283 130.543 38.6708 131.214 39.9501C131.366 38.7914 131.56 37.6328 131.649 36.4689C131.728 35.4309 132.247 35.0219 133.238 35.001C140.022 34.8699 146.806 34.5186 153.542 35.7507C155.545 36.1177 155.529 36.06 155.655 38.047C155.75 39.5778 155.923 41.1087 156.059 42.6396L156.552 42.65C156.678 41.6015 156.709 40.5372 156.95 39.5149C157.239 38.2776 157.637 37.0561 158.125 35.887C158.256 35.5672 158.869 35.2736 159.267 35.2631C164.222 35.1373 169.176 34.9538 174.13 35.0324C176.002 35.0639 177.889 35.6563 179.724 36.1491C180.217 36.2854 180.736 36.9408 180.925 37.4755C181.407 38.8176 181.706 40.2227 182.078 41.6015C182.188 41.6067 182.304 41.6172 182.414 41.6225C182.571 40.4114 182.802 39.2056 182.865 37.9945C182.928 36.7992 183.499 36.2173 184.616 35.9079C188.149 34.9276 191.746 34.8909 195.363 34.9905C198.278 35.0691 201.193 35.0586 204.103 35.1897C204.596 35.2107 205.356 35.6406 205.503 36.0495C206.195 38.0417 206.719 40.0916 207.29 42.1258C207.38 42.4351 207.401 42.7654 207.71 43.1114C207.93 41.8636 208.145 40.6159 208.376 39.3734C208.512 38.6499 208.617 37.9107 208.842 37.2134C209.319 35.7559 210.127 35.2054 211.637 35.2054C217.991 35.1897 224.345 35.1949 230.699 35.1425C231.763 35.132 232.277 35.4518 232.466 36.5371C232.702 37.8792 233.111 39.1951 233.714 40.5163C234.149 39.0693 234.626 37.6328 235.003 36.1701C235.197 35.4204 235.528 35.0796 236.335 35.0796C242.82 35.0744 249.3 35.0429 255.785 35.0062C256.708 35.0062 257.237 35.4151 257.437 36.3169C258.401 40.684 259.382 45.046 260.341 49.4131C260.671 50.9178 260.949 52.4381 261.18 53.5758C256.257 55.783 251.644 57.8958 246.988 59.9247C245.358 60.6325 243.659 61.1987 241.95 61.6862C241.001 61.9536 240.681 62.4045 240.755 63.3377C240.828 64.2918 240.739 65.2565 240.823 66.2054C241.059 68.9264 240.083 71.1912 237.834 72.6067C235.758 73.9122 233.509 75.076 231.181 75.7995C227.758 76.8638 224.659 75.5269 221.907 73.5032C219.532 71.7574 219.59 71.6945 217.016 73.1834C216.413 73.5347 215.799 73.865 215.165 74.1481C206.562 78.0067 197.979 81.923 189.34 85.6977C177.47 90.888 165.58 96.0311 153.632 101.048C151.66 101.877 150.491 102.396 150.669 104.996C150.874 107.984 150.145 111.041 149.857 114.066C149.783 114.816 149.516 115.114 148.724 115.099C146.638 115.051 144.546 115.12 142.459 115.067C141.28 115.041 140.777 115.612 141.044 116.661C141.558 118.669 141.883 120.829 142.874 122.601C145.988 128.174 145.516 133.653 142.832 139.089C139.828 145.171 136.635 151.153 133.526 157.182C133.405 157.412 133.3 157.654 133.19 157.889H132.666L132.661 157.879ZM138.15 98.9932C140.53 99.3706 142.549 99.2605 144.179 97.4256C144.923 96.592 145.867 95.9209 146.769 95.2394C157.066 87.4435 167.367 79.6424 177.696 71.8937C178.613 71.2069 178.786 70.5726 178.545 69.4926C177.36 64.2184 178.34 59.4843 182.314 55.5837C182.482 55.416 182.608 55.2063 182.86 54.8812C182.398 54.834 182.115 54.7764 181.827 54.7764C174.524 54.7764 167.215 54.8026 159.912 54.7606C158.581 54.7502 157.847 55.1905 157.212 56.4173C150.329 69.6184 144.541 83.3071 138.91 97.0691C138.669 97.6668 138.438 98.2644 138.15 98.9984V98.9932ZM123.009 99.2081C122.852 98.7363 122.763 98.3693 122.616 98.0338C116.409 83.9676 110.191 69.9068 103.999 55.8354C103.637 55.0175 103.16 54.8026 102.306 54.8026C94.6095 54.834 86.9132 54.8183 79.2169 54.8236C78.8552 54.8236 78.4935 54.8812 77.9692 54.9232C79.1435 56.2286 80.3336 57.2824 81.1882 58.5563C83.6365 62.1948 85.3037 65.9852 82.4307 70.2213C82.394 70.279 82.4307 70.3838 82.4307 70.5778C83.0861 71.0968 83.7833 71.6735 84.5121 72.2188C88.2711 75.0289 92.0458 77.8232 95.7943 80.6438C97.5978 82.0016 99.3698 83.4067 101.152 84.7855C103.726 86.7725 106.196 88.9062 108.896 90.6992C112.172 92.8749 115.853 94.4163 118.726 97.2421C119.806 98.3064 121.211 99.1032 122.993 99.2029L123.009 99.2081ZM109.121 54.9599C109.347 55.6152 109.472 56.0241 109.625 56.4278C114.731 69.9906 120.729 83.155 127.077 96.1778C128.299 98.6891 129.547 99.9159 132.388 99.2868C133.253 99.0928 133.72 98.904 134.061 98.0547C135.932 93.4202 137.83 88.7961 139.796 84.2036C143.723 75.0131 147.702 65.8437 151.645 56.6585C151.86 56.1657 151.97 55.6257 152.179 54.9494C147.471 54.6086 142.968 54.2364 138.412 54.8865C138.48 55.1329 138.485 55.2272 138.527 55.2954C138.601 55.4055 138.69 55.4999 138.784 55.589C141.815 58.4462 142.559 62.027 142.014 65.9852C141.065 72.8427 134.574 77.409 127.686 76.35C122.05 75.485 116.262 68.9631 118.291 62.1109C119.213 58.9915 120.435 56.4435 123.67 55.3006C123.717 55.2849 123.727 55.1696 123.806 54.9651H109.121V54.9599ZM113.142 98.9407C113.211 98.8411 113.273 98.7415 113.342 98.6471C112.775 98.2644 112.214 97.8765 111.638 97.5095C109.929 96.419 108.162 95.4072 106.505 94.238C101.74 90.888 96.9687 87.5431 92.3027 84.0568C89.7023 82.1117 87.3116 79.8888 84.8161 77.8022C83.6837 76.8533 82.5356 75.9254 81.3769 75.0079C80.1397 74.0275 78.9129 74.017 77.5288 74.8558C76.3544 75.5688 75.0595 76.4444 73.7645 76.5388C69.6386 76.8533 64.2701 75.5898 61.612 70.9868C59.7928 67.8307 59.5674 64.4753 60.3695 61.0204C60.5949 60.0505 60.4167 59.3899 59.6093 58.9181C58.2252 58.1107 56.8779 57.188 55.4047 56.6113C51.8764 55.2272 48.1278 54.9861 44.3793 54.8812C42.4448 54.8288 40.505 54.8707 38.5704 54.8707C38.8168 55.416 39.0947 55.6729 39.3935 55.9088C43.0634 58.8657 44.6152 62.6771 43.8131 67.3274C43.6191 68.444 43.9704 68.8215 44.9036 69.2252C64.5846 77.8127 84.2552 86.4317 103.931 95.0349C106.987 96.3718 110.07 97.6405 113.142 98.9407ZM151.23 97.0481C151.288 97.1582 151.346 97.2736 151.403 97.3837C153.511 96.4872 155.603 95.5697 157.721 94.6994C163.871 92.1724 170.073 89.7765 176.159 87.1185C182.613 84.3032 188.978 81.2939 195.342 78.295C202.687 74.8296 209.996 71.2751 217.325 67.7782C218.069 67.4217 218.274 67.0023 218.096 66.1582C217.236 61.9903 218.473 58.4462 221.477 55.4736C221.734 55.222 221.949 54.9336 222.185 54.661C222.148 54.5404 222.112 54.4146 222.075 54.294C218.578 54.4985 215.065 54.5719 211.584 54.9389C208.035 55.3111 204.69 56.323 202.074 59.0177C201.314 59.7989 200.973 60.5486 201.036 61.6548C201.125 63.2066 201.151 64.7951 200.931 66.3312C199.909 73.3512 191.541 79.0238 184.558 75.0236C183.295 74.3001 182.314 74.4469 181.15 75.2857C172.684 81.3777 164.169 87.4016 155.692 93.4831C154.145 94.5945 152.714 95.8633 151.23 97.0586V97.0481ZM256.278 50.1471C256.199 49.455 256.173 48.8941 256.068 48.3488C255.528 45.5807 254.915 42.8283 254.448 40.0444C254.291 39.1007 253.956 38.8491 253.033 38.8596C248.514 38.9068 243.994 38.8753 239.475 38.8805C237.955 38.8805 237.567 39.2004 237.347 40.7102C236.954 43.3735 236.649 46.0473 236.193 48.7001C235.994 49.8587 236.241 50.2467 237.457 50.2362C243.323 50.189 249.19 50.2152 255.057 50.21C255.397 50.21 255.738 50.1733 256.278 50.1418V50.1471ZM52.3429 50.3882C51.4045 47.2374 50.5342 44.3906 49.7111 41.5281C49.3127 40.1388 48.4162 39.6303 47.0216 39.6407C42.7646 39.6722 38.5075 39.6617 34.2557 39.6407C33.5217 39.6407 33.1914 39.8452 33.0761 40.6316C32.7458 42.8178 32.2844 44.983 31.9227 47.1692C31.7497 48.2178 31.692 49.2873 31.5662 50.4459C38.4551 51.0121 45.1552 50.9492 52.3429 50.3935V50.3882ZM230.4 50.2781C230.4 49.649 230.458 49.2139 230.39 48.7997C229.944 45.9267 229.457 43.059 229.021 40.1807C228.901 39.3786 228.366 39.3681 227.789 39.3786C222.882 39.431 217.975 39.5044 213.068 39.5306C212.25 39.5306 212.171 40.0497 212.067 40.6106C211.542 43.384 211.018 46.1522 210.515 48.9308C210.274 50.2677 210.436 50.4354 211.799 50.4249C216.795 50.3778 221.792 50.3306 226.793 50.2834C227.915 50.2729 229.037 50.2834 230.4 50.2834V50.2781ZM179.646 50.404C179.682 49.9007 179.766 49.6333 179.714 49.3921C179.064 46.2989 178.409 43.2058 177.701 40.1231C177.643 39.8767 177.156 39.5726 176.862 39.5673C171.955 39.5306 167.048 39.5306 162.14 39.5673C161.821 39.5673 161.307 39.9238 161.223 40.2122C160.258 43.5203 160.007 46.9123 160.043 50.3935H179.651L179.646 50.404ZM153.92 50.6556C153.181 46.9281 152.573 43.6986 151.854 40.4901C151.776 40.1336 151.094 39.667 150.685 39.6617C145.909 39.5778 141.133 39.5831 136.352 39.5359C135.602 39.5306 135.287 39.7718 135.193 40.553C134.837 43.4836 134.428 46.4038 133.987 49.3187C133.84 50.3044 134.155 50.6242 135.146 50.6137C138.318 50.5875 141.49 50.6399 144.656 50.6451C147.597 50.6556 150.533 50.6451 153.925 50.6451L153.92 50.6556ZM57.3025 50.6137C57.6852 50.6713 57.8478 50.7185 58.0155 50.7185C63.447 50.6661 68.8784 50.6084 74.3098 50.5508C77.9587 50.5088 77.943 50.4879 76.9731 46.9019C76.4174 44.8572 76.0399 42.7654 75.4894 40.7155C75.395 40.3642 74.8603 39.9134 74.4985 39.8872C72.2022 39.7299 69.9007 39.5831 67.6044 39.6198C65.0984 39.6617 62.5924 39.8504 60.1021 40.1283C59.5674 40.1912 58.76 40.8623 58.6709 41.3551C58.1256 44.3801 57.7534 47.4419 57.3025 50.6084V50.6137ZM108.23 50.4249H128.074C127.712 46.7655 127.014 43.384 125.856 40.1021C125.767 39.8504 125.258 39.5988 124.938 39.5988C120.241 39.5883 115.544 39.6093 110.846 39.6827C110.542 39.6827 110.054 40.1598 109.981 40.4848C109.567 42.3512 109.242 44.2333 108.912 46.1155C108.676 47.4733 108.476 48.8312 108.225 50.4197L108.23 50.4249ZM102.736 50.3778C102.117 47.1954 101.577 44.1862 100.932 41.1978C100.691 40.0969 99.8574 39.6355 98.6883 39.6407C94.5151 39.6617 90.3367 39.5936 86.1635 39.6407C85.7441 39.6407 85.0573 40.0811 84.9577 40.4429C84.1608 43.3264 83.4635 46.236 82.7662 49.1457C82.5251 50.1523 82.9393 50.5088 84.0088 50.5088C88.7062 50.4983 93.3984 50.5875 98.0958 50.5979C99.5166 50.5979 100.937 50.4721 102.746 50.383L102.736 50.3778ZM26.4231 50.5979C25.1963 46.8966 24.1268 43.5675 22.9577 40.2751C22.8476 39.9658 22.1503 39.7246 21.71 39.7037C20.588 39.646 19.4608 39.7351 18.3337 39.7508C15.078 39.7928 11.8223 39.798 8.56654 39.8924C8.16286 39.9029 7.46034 40.2961 7.42364 40.5792C6.99898 43.924 6.67394 47.2793 6.32792 50.5979H26.4231ZM205.12 50.1156C204.449 46.9543 203.815 43.9974 203.206 41.0353C203.018 40.1178 202.499 39.7456 201.576 39.7299C197.408 39.6617 193.24 39.4992 189.072 39.4992C186.66 39.4992 186.687 39.6145 186.273 42.0262C186.084 43.1324 185.759 44.2176 185.502 45.3186C185.24 46.4143 184.925 47.5048 184.731 48.611C184.485 50.0475 184.647 50.21 186.073 50.21C191.898 50.21 197.717 50.21 203.542 50.21C203.925 50.21 204.302 50.1628 205.125 50.1104L205.12 50.1156ZM236.461 64.0245C236.382 63.2485 236.398 62.4517 236.204 61.702C235.25 58.0163 231.889 55.1014 227.239 56.4855C225.671 56.9521 223.973 58.0321 223.06 59.3375C222.112 60.6954 221.713 62.6561 221.655 64.3705C221.472 69.6761 225.53 73.3669 230.337 72.3498C233.929 71.5896 236.34 68.6013 236.461 64.0297V64.0245ZM79.3218 65.5239C78.8447 63.7781 78.4148 62.0165 77.8643 60.2917C77.7228 59.8565 77.2509 59.4424 76.8263 59.2117C75.416 58.4462 73.969 57.7332 72.5063 57.0727C70.8758 56.3334 69.0933 56.6061 68.0081 57.7647C66.4405 59.4476 65.0093 61.4188 64.1075 63.5212C62.7969 66.5724 64.2753 69.6499 67.2794 71.1178C69.3764 72.1401 71.5312 72.1978 73.8642 71.9462C76.9364 71.6159 79.1802 69.0941 79.327 65.5239H79.3218ZM32.1481 56.9101C28.2581 56.9101 25.8884 58.8394 24.8556 62.6561C23.5292 67.5528 25.4165 70.1846 28.9606 72.0195C29.5058 72.3027 30.2241 72.4757 30.8165 72.3865C33.6266 71.9671 36.1693 70.8609 38.2296 68.8897C38.7959 68.3497 39.0632 67.4479 39.3516 66.672C39.9545 65.0415 39.2362 63.5369 38.8011 62.0008C37.7735 58.3729 35.8862 56.9154 32.1481 56.9154V56.9101ZM122.757 63.6155C122.616 69.1937 125.83 72.4495 130.69 72.051C133.552 71.8151 136.976 69.0941 137.647 66.5147C138.412 63.5683 137.044 60.1501 134.38 58.3257C131.895 56.627 129.426 56.5956 126.648 57.8329C123.56 59.2117 122.92 59.7884 122.763 63.2171C122.752 63.4792 122.763 63.7361 122.763 63.6155H122.757ZM196.915 65.4243C196.915 62.179 195.374 59.2798 192.695 57.4763C189.586 55.3845 185.334 56.4278 183.405 59.6363C181.491 62.8186 182.43 67.6209 184.301 69.8176C185.785 71.553 187.478 72.7693 189.963 71.7889C190.802 71.4586 191.73 71.3432 192.606 71.1021C195.594 70.2685 196.915 68.5227 196.915 65.4295V65.4243ZM145.705 110.192C145.705 108.215 145.673 106.438 145.72 104.666C145.741 103.79 145.474 103.387 144.541 103.428C141.72 103.554 138.894 103.649 136.069 103.738C130.905 103.911 125.741 104.042 120.576 104.283C120.099 104.304 119.397 104.86 119.234 105.321C118.825 106.501 118.663 107.769 118.396 108.996C118.186 109.945 118.422 110.475 119.538 110.469C124.928 110.459 130.312 110.522 135.702 110.485C138.91 110.464 142.119 110.302 145.705 110.186V110.192ZM132.802 132.756C135.314 132.557 137.647 132.363 139.98 132.185C140.803 132.122 141.185 131.713 141.317 130.884C141.615 129.023 141.269 127.361 140.111 125.851C137.888 122.942 132.22 121.012 128.671 122.108C127.948 122.334 127.261 122.942 126.758 123.534C126.118 124.289 125.526 125.154 125.185 126.072C124.65 127.513 124.294 129.028 123.958 130.533C123.79 131.304 124.11 131.818 125.048 131.907C127.68 132.153 130.307 132.478 132.797 132.756H132.802ZM126.433 135.875C128.011 141.344 129.856 146.429 132.76 151.341C134.873 146.051 136.871 141.039 138.931 135.875H126.427H126.433ZM13.8302 55.4474C13.8092 55.5733 13.783 55.7043 13.762 55.8301C16.0374 56.8577 18.3074 57.901 20.6037 58.8762C20.8239 58.9705 21.2905 58.6769 21.5422 58.4567C22.4492 57.6598 23.3037 56.8 24.195 55.9874C24.5095 55.6991 24.8765 55.4632 25.2225 55.2063C25.1754 55.0804 25.1229 54.9599 25.0758 54.834C21.3272 55.0385 17.5787 55.2482 13.825 55.4527L13.8302 55.4474ZM236.041 54.6872C236.398 55.1224 236.545 55.3269 236.718 55.5156C238.392 57.3785 240.393 57.8556 242.721 56.9468C244.272 56.3439 245.819 55.7201 247.366 55.1067C247.339 54.9651 247.308 54.8235 247.282 54.682H236.047L236.041 54.6872ZM130.496 117.138C130.496 117.243 130.501 117.348 130.506 117.453C132.923 117.72 135.34 117.987 137.778 118.26C138.014 117.526 138.087 116.997 137.122 116.991C135.225 116.981 133.321 116.928 131.424 116.923C131.114 116.923 130.805 117.065 130.496 117.138ZM61.2398 55.007C63.2739 56.8839 63.1953 57.0674 65.0145 55.007H61.2398ZM196.852 54.4251C198.813 56.3859 199.405 56.4068 201.073 54.7135C199.584 54.6138 198.221 54.5195 196.852 54.4251Z" fill="black"/>
<path d="M100.56 29.8998C97.4093 29.8998 94.2846 29.9313 91.1652 29.8526C90.8349 29.8421 90.3788 29.2497 90.2163 28.8355C88.7746 25.2024 87.3958 21.543 85.9697 17.8993C85.802 17.4642 85.4874 17.0867 85.1152 16.4785C84.8793 16.9504 84.7115 17.1339 84.7115 17.3121C84.7115 20.0069 84.6486 22.7016 84.7692 25.3911C84.853 27.1946 85.22 27.5196 87.034 27.8394C87.8781 27.9862 88.2398 28.2798 88.1717 29.1711C88.0878 30.1986 87.3538 29.8893 86.8191 29.8946C82.5148 29.9155 78.2053 29.9103 73.9011 29.9051C73.5184 29.9051 73.1304 29.8631 72.6533 29.8369V28.0439C73.3925 27.9653 74.1527 27.8866 74.9182 27.8027C75.8671 27.6979 76.4543 27.1946 76.5329 26.2352C76.6587 24.7253 76.8055 23.2101 76.816 21.695C76.8527 16.7826 76.8317 11.8702 76.8265 6.96307C76.8265 6.48599 76.8265 6.00366 76.7583 5.53182C76.47 3.42426 76.0768 3.06252 73.943 2.88427C72.919 2.79689 72.5135 2.17301 72.7267 1.01262C73.2457 0.970683 73.8015 0.876315 74.352 0.881557C79.9616 0.94447 85.5713 0.939228 91.1757 1.12796C96.906 1.32194 99.0083 3.76504 98.7566 9.51102C98.6256 12.5518 97.3831 14.869 94.5573 16.1745C93.8075 16.5205 93.6293 16.9032 93.9334 17.6791C94.8613 20.0645 95.5534 22.5548 96.6858 24.8354C97.2572 25.9835 98.4473 26.9954 99.6007 27.6297C100.618 28.1855 100.964 28.6625 100.56 29.8998ZM84.7744 3.20931V14.5125C87.7418 15.0997 89.6816 13.9306 90.0328 11.0891C90.2425 9.40092 90.1849 7.59744 89.8179 5.94599C89.2936 3.58678 87.2804 2.6064 84.7744 3.20931Z" fill="black"/>
<path d="M105.887 29.884V28.0176C106.453 27.9757 107.003 27.897 107.554 27.9075C108.938 27.9285 109.635 27.1893 109.834 25.8996C109.923 25.3439 109.976 24.7776 109.976 24.2167C109.965 18.3082 109.939 12.3944 109.913 6.48593C109.913 6.05079 109.881 5.61565 109.824 5.18575C109.577 3.4242 109.216 3.08867 107.417 2.89994C107.202 2.87897 106.982 2.8475 106.767 2.85275C106.06 2.8842 105.609 2.54343 105.813 1.85664C105.923 1.48965 106.437 0.986355 106.778 0.981112C111.779 0.928685 116.781 0.918197 121.777 0.970624C123.423 0.986352 125.08 1.11218 126.716 1.33761C129.19 1.68363 130.821 3.12013 131.539 5.52128C132.236 7.84379 132.152 10.1611 131.34 12.4364C130.58 14.5649 128.876 15.7183 126.637 16.6043C127.811 19.5874 128.797 22.5495 130.16 25.3281C130.674 26.3714 131.979 27.1473 133.086 27.7398C133.867 28.1592 134.024 28.6572 133.814 29.2601C133.709 29.5695 133.086 29.8631 132.687 29.8735C130.165 29.9417 127.644 29.8788 125.122 29.9679C124.126 29.9994 123.644 29.6429 123.303 28.7411C121.913 25.087 120.477 21.4485 119.03 17.8154C118.862 17.3907 118.521 17.029 118.254 16.6253C118.002 16.814 117.877 16.8664 117.877 16.9136C117.877 19.902 117.845 22.8955 117.913 25.8839C117.939 27.1421 118.841 27.6873 120 27.8027C120.823 27.8866 121.384 28.0596 121.295 29.1186C121.195 30.3192 120.351 29.926 119.759 29.9312C115.586 29.9574 111.407 29.9469 107.234 29.9417C106.809 29.9417 106.385 29.905 105.887 29.8788V29.884ZM117.819 8.79795C117.819 10.4075 117.85 12.017 117.803 13.6265C117.782 14.4181 118.081 14.6855 118.852 14.7117C120.923 14.7799 122.605 13.8781 122.941 11.8544C123.266 9.89368 123.235 7.79136 122.925 5.82535C122.642 4.03236 120.97 3.00479 119.187 2.93663C118.275 2.89993 117.709 3.09916 117.787 4.23682C117.887 5.75196 117.814 7.27757 117.814 8.80319L117.819 8.79795ZM115.061 12.0537H111.585L111.402 12.4259C111.727 12.6146 112.083 13.0026 112.372 12.9606C113.226 12.8348 114.401 13.5688 115.061 12.0537ZM113.121 10.6486C113.787 10.4075 114.338 10.2082 114.883 10.009C114.343 9.81503 113.808 9.47425 113.263 9.46377C112.686 9.45328 112.11 9.7626 111.528 9.93037C112.047 10.1663 112.566 10.4022 113.116 10.6486H113.121ZM115.019 23.2206C114.941 23.0685 114.867 22.9217 114.789 22.7697H111.344C111.889 24.2744 113.043 23.5771 113.861 23.6872C114.217 23.7344 114.631 23.3883 115.014 23.2206H115.019ZM113.174 17.2439C112.602 17.5165 112.062 17.7787 111.522 18.0408C112.094 18.1981 112.665 18.4759 113.232 18.4707C113.787 18.4602 114.338 18.1561 114.893 17.9831C114.364 17.7577 113.84 17.5323 113.174 17.2492V17.2439ZM113.305 14.2556C112.629 14.4653 112.062 14.6383 111.501 14.8166C112.094 14.9738 112.686 15.236 113.284 15.2622C113.813 15.2832 114.348 15.0367 114.883 14.9109C114.359 14.696 113.829 14.4758 113.305 14.2608V14.2556ZM111.491 6.79525C111.533 7.13602 111.549 7.5135 111.58 7.5135C112.597 7.57117 113.614 7.59738 114.637 7.59214C114.705 7.59214 114.867 7.23563 114.82 7.18845C114.673 7.02068 114.458 6.81622 114.264 6.81097C113.363 6.77427 112.461 6.79525 111.486 6.79525H111.491ZM113.184 19.9124C112.597 20.1326 112.052 20.3319 111.512 20.5311C112.062 20.6936 112.613 20.9924 113.158 20.9819C113.74 20.9767 114.322 20.6831 114.909 20.5153C114.359 20.3214 113.803 20.1274 113.184 19.9072V19.9124ZM111.433 25.7528C111.491 25.8681 111.549 25.9887 111.606 26.104C112.424 26.104 113.242 26.1355 114.055 26.0831C114.28 26.0674 114.485 25.8052 114.699 25.6532C114.474 25.4644 114.264 25.1446 114.018 25.1184C113.42 25.0503 112.796 25.0555 112.204 25.1551C111.921 25.2023 111.69 25.5431 111.433 25.7528ZM111.554 4.38886C111.48 4.5042 111.402 4.62478 111.328 4.74011C111.591 4.90788 111.837 5.18574 112.115 5.21195C112.796 5.28011 113.499 5.26963 114.186 5.2172C114.427 5.20147 114.652 4.97604 114.883 4.85021C114.631 4.69818 114.39 4.42555 114.128 4.40982C113.273 4.35215 112.414 4.38886 111.554 4.38886ZM114.752 28.0491C114.752 27.9233 114.752 27.8027 114.752 27.6769C113.509 27.7083 112.267 27.2941 111.019 27.6139C111.019 27.7607 111.019 27.9075 111.019 28.0491H114.752ZM111.25 2.40188C111.26 2.49625 111.271 2.59062 111.281 2.68498H114.778C114.778 2.59062 114.778 2.49625 114.773 2.40188H111.25Z" fill="black"/>
<path d="M3.7276 2.90002V1.08081H19.7912C19.8174 1.65226 19.8436 2.19226 19.8751 2.88953C19.1883 2.96817 18.5644 3.10449 17.9353 3.10449C16.7347 3.10449 16.0322 3.66021 15.8854 4.83457C15.7648 5.77826 15.6862 6.73242 15.6757 7.68135C15.6495 10.3761 15.6652 13.0708 15.6652 15.8075C15.8434 15.8075 16.0007 15.8599 16.0741 15.8023C19.0887 13.4116 21.9984 10.9004 23.6708 7.34582C24.0745 6.49126 24.1426 5.31166 23.9224 4.3837C23.7966 3.85419 22.8372 3.31944 22.1661 3.16216C20.6353 2.8109 20.5723 2.84235 20.9655 1.09654H35.493C35.9649 2.69031 35.9072 2.82662 34.4183 3.11497C31.949 3.58681 29.8362 4.73496 28.0484 6.47029C26.6119 7.8596 25.1964 9.27513 23.8385 10.7483C23.5764 11.0314 23.4086 11.7444 23.5764 12.0433C25.7731 15.9333 27.954 19.8391 30.3237 23.6296C31.9175 26.1828 34.4025 27.5931 37.4957 28.0806V29.989C35.6503 29.989 33.8363 29.989 32.0276 29.989C28.5936 29.9785 25.1544 29.9732 21.7205 29.9575C20.09 29.947 20.09 29.9313 20.2473 28.2379C20.3155 28.1802 20.3731 28.0911 20.4465 28.0806C22.6851 27.6927 22.8791 27.5301 21.8463 25.4593C20.4989 22.7593 18.9052 20.1799 17.4215 17.5586C15.9798 18.324 15.5656 19.21 15.6652 20.505C15.7753 21.9729 15.6128 23.4566 15.6547 24.935C15.7229 27.1579 16.6194 28.0387 18.3599 28.0072C19.6916 27.981 19.0048 29.0033 19.1778 29.7845C18.3652 29.8474 17.6522 29.9523 16.9339 29.9523C12.8866 29.9732 8.84446 29.968 4.79711 29.9628C4.1575 29.9628 3.47596 30.0676 3.4445 29.0348C3.41304 27.9705 4.03692 27.9915 4.79187 27.9758C6.96758 27.9338 7.56525 27.5249 7.65437 25.3282C7.82738 21.2075 7.82738 17.0762 7.83262 12.9502C7.83262 10.3132 7.72777 7.67611 7.65437 5.04428C7.61767 3.68118 6.81554 3.14643 5.53109 3.12021C4.93342 3.10973 4.341 2.99439 3.71712 2.92624L3.7276 2.90002ZM10.627 19.9754C10.0188 20.1956 9.4264 20.4106 8.83922 20.6255C9.44213 20.7881 10.045 21.0869 10.6427 21.0816C11.2299 21.0816 11.8171 20.7723 12.4042 20.5993C11.8433 20.4053 11.2823 20.2061 10.627 19.9807V19.9754ZM10.5064 8.02737C11.1879 7.75475 11.7594 7.52931 12.3361 7.29863C11.7489 7.12038 11.1565 6.80582 10.5693 6.80058C9.97164 6.80058 9.37397 7.09416 8.77106 7.26193C9.32679 7.50834 9.88776 7.75475 10.5064 8.02737ZM10.627 23.9284C11.2299 23.6558 11.7804 23.4042 12.3361 23.1525C11.7332 22.9952 11.1303 22.7069 10.5274 22.7174C9.94018 22.7279 9.35824 23.0372 8.77631 23.2154C9.353 23.4409 9.93494 23.6663 10.6217 23.9337L10.627 23.9284ZM10.5745 13.291C11.2509 13.0184 11.8275 12.7877 12.4042 12.557C11.8171 12.384 11.2299 12.0852 10.6375 12.08C10.0398 12.08 9.43689 12.3631 8.83922 12.5203C9.39494 12.7667 9.95067 13.0132 10.5745 13.291ZM10.6322 18.67C11.2089 18.4446 11.7908 18.2191 12.3675 17.999C11.7699 17.8312 11.1722 17.5271 10.5798 17.5323C9.99785 17.5376 9.42116 17.8626 8.83922 18.0461C9.40019 18.2401 9.95591 18.4341 10.6322 18.67ZM10.7213 10.7431C11.2456 10.46 11.7961 10.1611 12.3466 9.8623C11.7489 9.70502 11.146 9.40619 10.5536 9.43765C9.97688 9.46386 9.41592 9.82561 8.84971 10.0353C9.40019 10.245 9.94543 10.4495 10.7213 10.7431ZM12.5091 14.7328H8.76582C9.43164 15.6293 11.5916 15.666 12.5091 14.7328ZM10.5221 26.3663C11.125 26.1513 11.6808 25.9521 12.2312 25.7529C11.6755 25.5956 11.1145 25.3177 10.5588 25.323C10.0136 25.323 9.46834 25.6166 8.9231 25.7791C9.43689 25.9678 9.95067 26.1566 10.5169 26.3663H10.5221ZM12.6035 4.39943C11.2456 4.39943 10.3439 4.3837 9.44213 4.41516C9.28485 4.4204 9.13805 4.63535 8.98077 4.75593C9.13281 4.92369 9.27436 5.22777 9.43164 5.23825C10.2495 5.2802 11.0778 5.2802 11.8957 5.21729C12.074 5.20156 12.2207 4.85554 12.6035 4.40467V4.39943ZM12.4409 28.1278C12.4409 28.0282 12.4409 27.9286 12.4462 27.829H8.56136C8.56136 27.9286 8.56136 28.0282 8.56136 28.1278H12.4357H12.4409ZM9.29009 2.50682C9.27436 2.60119 9.26388 2.69555 9.24815 2.78992L12.4305 2.95769C12.4409 2.80565 12.4462 2.65886 12.4567 2.50682H9.29533H9.29009Z" fill="black"/>
<path d="M201.576 2.83702V0.907715H226.61C226.652 1.21703 226.741 1.54208 226.741 1.86713C226.751 4.86594 226.767 7.86476 226.725 10.8636C226.725 11.2568 226.416 11.6447 226.253 12.0327C225.86 11.7653 225.362 11.5818 225.089 11.2201C223.543 9.1964 222.143 7.05214 220.507 5.10186C218.719 2.97857 216.287 2.55392 213.566 3.05722V13.9934C214.698 13.4377 215.731 13.1651 216.444 12.5307C217.299 11.7706 217.986 10.764 218.557 9.75737C219.003 8.98145 219.417 8.61446 220.345 9.06533V20.4629C219.364 20.8509 218.924 20.3948 218.531 19.5717C217.367 17.1443 215.763 15.9437 213.603 15.8651C213.545 16.253 213.44 16.6567 213.435 17.0657C213.419 20.2794 213.451 23.4984 213.409 26.7122C213.398 27.5772 213.713 27.8394 214.536 27.8604C217.1 27.9285 219.265 26.9429 220.942 25.1341C222.41 23.5561 223.606 21.7212 224.906 19.9911C225.194 19.6084 225.367 19.1313 225.703 18.8115C225.907 18.6175 226.363 18.5179 226.631 18.607C226.861 18.6804 227.144 19.0789 227.144 19.3357C227.176 22.5495 227.155 25.7685 227.16 28.9823C227.16 29.8788 226.552 29.905 225.912 29.905C224.041 29.905 222.174 29.905 220.303 29.905C214.562 29.905 208.821 29.905 203.081 29.905C202.609 29.905 202.137 29.905 201.707 29.905C201.183 28.1644 201.261 28.0334 202.876 27.8079C205.146 27.4934 205.508 27.2417 205.539 24.9716C205.618 18.5389 205.623 12.1061 205.571 5.67331C205.55 3.42944 204.947 2.9576 202.719 2.87896C202.378 2.86848 202.043 2.84751 201.592 2.83178L201.576 2.83702Z" fill="black"/>
<path d="M190.435 3.62343C191.777 2.80033 192.469 0.829085 194.535 0.367729V11.7758C193.633 12.2581 193.35 11.6867 192.926 11.0628C191.515 8.99194 190.226 6.78477 188.511 4.99177C186.1 2.47004 183.017 1.36384 179.468 2.31801C177.869 2.74791 177.077 3.75974 176.914 5.39546C176.789 6.66419 177.433 7.82806 178.938 8.41C180.59 9.04437 182.335 9.44806 184.05 9.9199C186.105 10.4809 188.212 10.8741 190.215 11.5713C196.69 13.8205 199.091 21.5534 195.133 27.1998C193.009 30.23 188.684 31.525 184.438 30.4135C182.278 29.8473 180.432 28.7254 178.838 27.2103C178.005 26.4186 177.412 26.4658 176.71 27.3308C176.081 28.1068 175.399 28.8512 174.655 29.5066C174.309 29.8106 173.748 29.8631 173.281 30.0256C173.161 29.6376 172.946 29.2549 172.94 28.867C172.914 25.3439 172.93 21.826 172.94 18.3029C172.94 18.1771 172.982 18.0513 173.014 17.8835C173.905 17.4431 174.414 17.7839 174.833 18.628C176.028 21.0501 177.302 23.4251 179.389 25.239C181.822 27.3571 184.501 28.8407 187.845 28.7516C190.367 28.6835 191.956 27.6349 192.202 25.8472C192.459 24.007 191.306 22.5652 188.81 21.9152C186.372 21.2755 183.887 20.8456 181.434 20.2637C180.38 20.0121 179.342 19.6713 178.33 19.2728C172.904 17.1181 170.67 11.6972 172.883 6.09274C174.912 0.954908 180.233 -1.34139 185.57 0.797624C187.269 1.47917 188.773 2.64305 190.446 3.63392L190.435 3.62343ZM190.849 15.9595C190.891 15.8022 190.933 15.6449 190.975 15.4876C190.226 15.2989 189.481 14.9686 188.726 14.9476C186.162 14.869 183.594 14.8952 181.025 14.89C179.31 14.89 177.596 14.89 175.882 14.89C175.845 15.063 175.808 15.2307 175.777 15.4037C176.196 15.5925 176.61 15.9385 177.03 15.9385C181.638 15.9752 186.246 15.9647 190.855 15.9647L190.849 15.9595ZM179.499 17.4274C179.499 17.6214 179.499 17.8206 179.499 18.0146C184.249 18.8272 189.046 18.2348 193.864 18.1142C193.434 17.6791 192.957 17.4169 192.48 17.4117C189.308 17.3855 186.142 17.4117 182.97 17.4274C181.811 17.4274 180.658 17.4274 179.499 17.4274ZM174.602 12.4836C174.954 13.4482 178.576 13.7785 181.187 13.1599C178.949 12.1742 176.815 12.2791 174.602 12.4836ZM189.345 20.0645C189.334 20.1746 189.324 20.2899 189.313 20.4C190.939 21.1654 192.674 21.155 194.42 20.9715C194.577 20.9557 194.698 20.6412 194.839 20.4682C194.598 20.3319 194.362 20.0855 194.116 20.0802C192.527 20.0435 190.933 20.0645 189.34 20.0645H189.345ZM176.212 11.0943C175.698 9.72591 175.074 9.60009 173.648 10.5857C174.613 10.7744 175.284 10.9108 176.212 11.0943Z" fill="black"/>
<path d="M154.203 0.87108C154.156 1.647 154.119 2.19748 154.082 2.78466C153.81 2.83709 153.605 2.9 153.396 2.91573C150.439 3.07825 149.878 3.63922 149.867 6.65376C149.846 11.4351 149.851 16.2164 149.888 20.9925C149.899 22.2455 149.925 23.53 150.187 24.7463C150.533 26.3558 151.272 27.8866 153.044 28.3165C155.005 28.7936 156.95 28.3218 158.035 26.6127C159.005 25.087 159.87 23.2469 160.007 21.4906C160.353 16.9976 160.389 12.4679 160.316 7.95395C160.269 5.01805 159.031 3.6864 156.263 2.76369C155.928 0.960206 155.991 0.844871 157.726 0.834385C160.421 0.813414 163.115 0.834385 165.815 0.850113C165.936 0.850113 166.057 0.928756 166.188 0.97594C166.507 2.02448 166.403 2.75845 165.186 3.19359C163.713 3.7231 162.885 4.99183 162.707 6.47027C162.418 8.87666 162.245 11.304 162.219 13.7261C162.182 17.1549 162.408 20.5783 161.396 23.9441C160.174 28.0177 157.883 30.0833 153.673 30.6023C152.641 30.7282 151.587 30.7806 150.554 30.7386C146.973 30.5814 144.425 28.8251 143.198 25.475C142.611 23.8655 142.234 22.1092 142.166 20.4001C142.008 16.3685 142.118 12.3263 142.066 8.28423C142.05 7.03123 141.909 5.77823 141.762 4.53572C141.647 3.58679 141.07 3.08874 140.074 3.08349C139.597 3.08349 139.125 2.93146 138.653 2.91573C137.772 2.89476 137.736 2.32331 137.741 1.66273C137.746 0.923512 138.202 0.8606 138.784 0.8606C142.826 0.871086 146.874 0.86584 150.916 0.86584C151.949 0.86584 152.987 0.86584 154.203 0.86584V0.87108Z" fill="black"/>
<path d="M53.6221 29.8368C53.1869 28.5471 53.5434 27.9809 54.9065 27.8027C56.6628 27.5772 56.925 26.9953 56.4007 25.2914C55.7821 23.2712 54.4172 22.2611 52.3062 22.2611C51.0899 22.2611 49.8735 22.2769 48.652 22.2611C47.8237 22.2507 47.5039 22.6072 47.5353 23.4512C47.6297 26.0831 48.5 27.3151 51.0269 27.9075C52.3062 28.2063 51.7347 29.0399 51.8396 29.8578H40.3843C40.0802 28.8145 40.3109 28.243 41.2965 27.6244C42.4185 26.9271 43.6243 25.9205 44.1381 24.7567C46.9534 18.3606 49.5695 11.8754 52.2485 5.41641C52.8147 4.05331 53.3127 2.65875 53.9314 1.32187C54.1411 0.876237 54.6339 0.561677 54.9957 0.184204C55.3522 0.56692 55.8659 0.891967 56.0494 1.34808C59.064 8.88706 62.068 16.4365 65.0039 24.007C65.8533 26.1932 67.0433 27.8446 69.6542 27.9966V29.8368H53.6168H53.6221ZM54.3875 20.2113C53.3757 17.6266 52.4267 15.194 51.4778 12.7614C51.373 12.7614 51.2681 12.7614 51.1632 12.7614C50.2248 15.194 49.2864 17.6214 48.285 20.2113H54.3875Z" fill="black"/>
<path d="M235.606 0.960205H251.513C251.937 2.29709 251.639 2.84757 250.27 2.87378C248.362 2.91572 247.796 3.47669 247.581 5.34833C247.434 6.59609 247.402 7.85957 247.397 9.11782C247.381 14.9005 247.418 20.6779 247.366 26.4606C247.355 27.5773 247.764 27.9076 248.787 27.8919C251.03 27.8552 253.033 27.0897 254.532 25.4907C256.095 23.8235 257.405 21.9205 258.816 20.1117C259.052 19.8077 259.157 19.3725 259.434 19.1261C259.723 18.8692 260.147 18.7591 260.514 18.5861C260.661 18.9111 260.929 19.231 260.929 19.5612C260.96 22.9061 260.95 26.2457 260.95 29.7111H235.685C235.302 28.0387 235.35 27.9705 237.001 27.7451C239.072 27.4672 239.528 27.0373 239.528 24.914C239.533 18.3974 239.502 11.8755 239.439 5.35882C239.418 3.41902 238.93 2.98387 237.053 2.85281C235.928 2.77591 235.449 2.14505 235.617 0.960205H235.606ZM242.6 25.087C242.338 25.087 242.055 25.0189 241.824 25.1028C241.557 25.2024 241.342 25.4383 241.101 25.6165C241.358 25.7738 241.599 26.0202 241.877 26.0674C242.343 26.1408 242.836 26.1408 243.303 26.0674C243.586 26.0202 243.832 25.7738 244.1 25.6113C243.816 25.4383 243.549 25.2233 243.245 25.1028C243.056 25.0294 242.815 25.087 242.6 25.0923V25.087ZM241.001 4.76115C241.405 6.30774 242.501 5.6157 243.235 5.6891C243.581 5.72056 243.968 5.29066 244.341 5.07047C244.273 4.96561 244.204 4.86076 244.136 4.76115H241.001ZM242.59 23.5142C242.621 23.5876 242.653 23.661 242.679 23.7292C243.151 23.4985 243.628 23.2731 244.105 23.0424C243.591 22.8536 243.088 22.6335 242.563 22.4971C242.286 22.4237 241.945 22.45 241.672 22.5391C241.483 22.602 241.237 22.8589 241.237 23.0319C241.237 23.1892 241.499 23.4356 241.693 23.4933C241.971 23.5719 242.291 23.5142 242.59 23.5142ZM242.668 15.8075L242.752 15.9857C243.203 15.776 243.649 15.5611 244.1 15.3514C243.633 15.1941 243.166 15.0316 242.689 14.8848C242.569 14.8481 242.417 14.8428 242.307 14.8848C241.955 15.0158 241.615 15.1731 241.269 15.3199C241.604 15.4824 241.94 15.6554 242.28 15.797C242.39 15.8442 242.537 15.8022 242.668 15.8022V15.8075ZM242.621 10.8531C242.663 10.9265 242.7 10.9947 242.742 11.0681C243.193 10.806 243.643 10.5491 244.094 10.2869C243.607 10.1454 243.124 9.97238 242.626 9.87277C242.338 9.8151 242.013 9.83082 241.725 9.89897C241.562 9.93567 241.31 10.1716 241.331 10.266C241.379 10.4652 241.541 10.7273 241.719 10.7902C241.992 10.8846 242.317 10.8374 242.616 10.8531H242.621ZM242.674 13.3277C242.695 13.3854 242.715 13.4378 242.736 13.4955C243.198 13.3067 243.659 13.118 244.115 12.9345C243.643 12.7825 243.177 12.6199 242.7 12.4836C242.584 12.4469 242.432 12.4469 242.317 12.4836C241.961 12.6042 241.615 12.751 241.263 12.8821C241.604 13.0289 241.94 13.1914 242.286 13.3224C242.396 13.3644 242.537 13.3277 242.668 13.3277H242.674ZM241.284 7.21996C241.237 7.3353 241.19 7.45588 241.148 7.57122C241.358 7.74947 241.557 8.04831 241.782 8.07452C242.38 8.14792 242.993 8.13219 243.596 8.08501C243.795 8.06928 243.979 7.85433 244.168 7.7285C243.968 7.56074 243.785 7.26191 243.575 7.24618C242.815 7.18851 242.05 7.22521 241.289 7.22521L241.284 7.21996ZM244.11 18.0356C243.313 17.0815 242.265 17.5585 241.289 17.6319C242.05 18.7853 243.13 18.1405 244.11 18.0356ZM242.721 20.0698C242.506 20.0698 242.27 20.0174 242.076 20.0803C241.793 20.1746 241.536 20.3476 241.274 20.4892C241.525 20.6465 241.761 20.8824 242.039 20.9401C242.411 21.0187 242.826 21.0135 243.203 20.9453C243.528 20.8876 243.832 20.6884 244.141 20.5469C243.843 20.3896 243.554 20.2061 243.24 20.0803C243.093 20.0226 242.899 20.0698 242.726 20.0698H242.721ZM244.278 3.21455C244.278 3.12543 244.267 3.04154 244.267 2.95242H240.681C240.687 3.04154 240.692 3.12543 240.697 3.21455H244.278ZM244.058 27.8814C244.052 27.6979 244.047 27.5144 244.037 27.3309C242.946 27.399 241.856 27.4725 240.765 27.5406L240.786 27.8814H244.058Z" fill="black"/>
<path d="M115.061 12.0537C114.401 13.5741 113.232 12.8401 112.372 12.9607C112.078 13.0026 111.727 12.6147 111.402 12.4259L111.585 12.0537H115.061Z" fill="#5995CE"/>
<path d="M113.121 10.6488C112.576 10.4024 112.052 10.1665 111.533 9.93053C112.109 9.76277 112.691 9.45869 113.268 9.46393C113.808 9.47442 114.348 9.8152 114.888 10.0092C114.338 10.2084 113.787 10.4076 113.126 10.6488H113.121Z" fill="#5995CD"/>
<path d="M115.019 23.2206C114.631 23.3884 114.222 23.7344 113.866 23.6872C113.048 23.5771 111.889 24.2744 111.349 22.7698H114.794C114.872 22.9218 114.946 23.0686 115.024 23.2206H115.019Z" fill="#5995CD"/>
<path d="M113.174 17.2439C113.834 17.527 114.364 17.7524 114.894 17.9779C114.338 18.1509 113.787 18.455 113.232 18.4654C112.665 18.4759 112.094 18.1928 111.522 18.0355C112.062 17.7734 112.602 17.5165 113.174 17.2386V17.2439Z" fill="#5995CD"/>
<path d="M113.305 14.2557C113.829 14.4707 114.359 14.6909 114.883 14.9058C114.348 15.0316 113.808 15.2781 113.284 15.2571C112.686 15.2309 112.094 14.974 111.501 14.8115C112.068 14.6385 112.629 14.4602 113.305 14.2505V14.2557Z" fill="#5995CE"/>
<path d="M111.491 6.79539C112.466 6.79539 113.368 6.77442 114.269 6.81112C114.463 6.82161 114.678 7.02607 114.825 7.1886C114.867 7.23578 114.71 7.59228 114.642 7.59228C113.624 7.59228 112.602 7.56607 111.585 7.51365C111.548 7.51365 111.533 7.13617 111.496 6.79539H111.491Z" fill="#5995CE"/>
<path d="M113.184 19.9125C113.803 20.1327 114.353 20.3266 114.909 20.5206C114.327 20.6884 113.745 20.9767 113.158 20.9872C112.613 20.9925 112.062 20.6989 111.512 20.5364C112.052 20.3371 112.592 20.1379 113.184 19.9177V19.9125Z" fill="#5995CE"/>
<path d="M111.433 25.7528C111.69 25.5431 111.921 25.2076 112.204 25.1551C112.796 25.0503 113.42 25.0503 114.018 25.1184C114.264 25.1446 114.474 25.4644 114.699 25.6532C114.484 25.8052 114.28 26.0674 114.054 26.0831C113.242 26.1355 112.424 26.1041 111.606 26.1041C111.548 25.9887 111.491 25.8681 111.433 25.7528Z" fill="#5995CE"/>
<path d="M111.554 4.38895C112.414 4.38895 113.273 4.35225 114.128 4.40992C114.39 4.42565 114.631 4.69827 114.883 4.85031C114.652 4.98138 114.427 5.20157 114.186 5.2173C113.499 5.26972 112.802 5.2802 112.115 5.21205C111.842 5.18584 111.591 4.90273 111.328 4.74021C111.402 4.62487 111.48 4.50429 111.554 4.38895Z" fill="#5995CE"/>
<path d="M114.752 28.0492H111.019C111.019 27.9024 111.019 27.7556 111.019 27.6141C112.267 27.2943 113.504 27.7137 114.752 27.677C114.752 27.8028 114.752 27.9234 114.752 28.0492Z" fill="#5995CE"/>
<path d="M111.25 2.40198H114.773C114.773 2.49635 114.773 2.59071 114.778 2.68508H111.281C111.271 2.59071 111.26 2.49635 111.25 2.40198Z" fill="#5995CE"/>
<path d="M190.849 15.9596C186.241 15.9596 181.633 15.9753 177.024 15.9334C176.605 15.9334 176.191 15.5821 175.771 15.3986C175.808 15.2256 175.845 15.0579 175.876 14.8849C177.591 14.8849 179.305 14.8849 181.019 14.8849C183.588 14.8901 186.157 14.8639 188.721 14.9425C189.476 14.9635 190.22 15.2938 190.97 15.4825C190.928 15.6398 190.886 15.7971 190.844 15.9544L190.849 15.9596Z" fill="#DE8BB5"/>
<path d="M179.499 17.4274C180.657 17.4274 181.811 17.4274 182.969 17.4274C186.141 17.4169 189.308 17.3855 192.48 17.4117C192.957 17.4117 193.434 17.679 193.864 18.1142C189.046 18.2348 184.249 18.8324 179.499 18.0146C179.499 17.8206 179.499 17.6214 179.499 17.4274Z" fill="#DE8BB5"/>
<path d="M174.602 12.4836C176.815 12.2843 178.948 12.1742 181.187 13.1599C178.576 13.7785 174.954 13.443 174.602 12.4836Z" fill="#DE8BB5"/>
<path d="M189.345 20.0645C190.939 20.0645 192.527 20.0488 194.121 20.0802C194.362 20.0854 194.603 20.3319 194.844 20.4682C194.708 20.6412 194.582 20.9557 194.425 20.9715C192.674 21.155 190.939 21.1654 189.319 20.4C189.329 20.2899 189.34 20.1746 189.35 20.0645H189.345Z" fill="#DE8BB5"/>
<path d="M176.212 11.0943C175.289 10.9108 174.613 10.7798 173.648 10.5858C175.074 9.60015 175.698 9.72074 176.212 11.0943Z" fill="#DE8BB5"/>
<path d="M242.6 25.087C242.815 25.087 243.061 25.024 243.245 25.1027C243.549 25.2233 243.816 25.4382 244.099 25.6112C243.837 25.7685 243.586 26.0202 243.303 26.0673C242.836 26.146 242.343 26.146 241.877 26.0673C241.599 26.0254 241.357 25.7738 241.101 25.6165C241.342 25.4382 241.557 25.2075 241.824 25.1027C242.055 25.0188 242.338 25.087 242.6 25.0817V25.087Z" fill="#E1C949"/>
<path d="M241.001 4.76111H244.136C244.204 4.86596 244.272 4.97081 244.341 5.07042C243.968 5.29062 243.58 5.72051 243.234 5.68906C242.5 5.61566 241.405 6.3077 241.001 4.76111Z" fill="#E1C949"/>
<path d="M242.589 23.5142C242.285 23.5142 241.971 23.5719 241.693 23.4933C241.499 23.4408 241.237 23.1944 241.237 23.0319C241.237 22.8589 241.483 22.6072 241.672 22.5391C241.945 22.4447 242.285 22.4237 242.563 22.4971C243.087 22.6334 243.591 22.8536 244.105 23.0424C243.627 23.2731 243.156 23.4985 242.679 23.7292C242.647 23.6558 242.616 23.5824 242.589 23.5142Z" fill="#E1C949"/>
<path d="M242.668 15.8075C242.537 15.8075 242.395 15.8442 242.28 15.8022C241.934 15.6607 241.604 15.4877 241.268 15.3251C241.614 15.1783 241.955 15.0211 242.306 14.89C242.422 14.8481 242.574 14.8533 242.689 14.89C243.161 15.0315 243.628 15.1993 244.099 15.3566C243.648 15.5663 243.203 15.7813 242.752 15.991L242.668 15.8127V15.8075Z" fill="#E1C949"/>
<path d="M242.621 10.8532C242.317 10.8374 241.997 10.8899 241.724 10.7903C241.546 10.7273 241.384 10.4652 241.336 10.266C241.315 10.1716 241.567 9.93569 241.73 9.89899C242.018 9.83083 242.338 9.81511 242.631 9.87278C243.129 9.97239 243.612 10.1454 244.099 10.2869C243.648 10.5491 243.198 10.806 242.747 11.0681C242.705 10.9947 242.668 10.9266 242.626 10.8532H242.621Z" fill="#E1C949"/>
<path d="M242.673 13.3277C242.548 13.3277 242.406 13.3643 242.291 13.3224C241.945 13.1913 241.609 13.0288 241.268 12.882C241.62 12.7457 241.966 12.5989 242.322 12.4836C242.437 12.4469 242.584 12.4469 242.705 12.4836C243.177 12.6251 243.648 12.7824 244.12 12.9344C243.659 13.1232 243.198 13.3119 242.742 13.4954C242.721 13.4377 242.7 13.3853 242.679 13.3277H242.673Z" fill="#E1C949"/>
<path d="M241.284 7.22C242.044 7.22 242.81 7.18331 243.57 7.24098C243.78 7.25671 243.968 7.55554 244.162 7.7233C243.974 7.84913 243.79 8.06407 243.591 8.0798C242.988 8.12699 242.375 8.14272 241.777 8.06932C241.546 8.04311 241.352 7.74427 241.143 7.56602C241.19 7.45068 241.237 7.3301 241.279 7.21476L241.284 7.22Z" fill="#E1C949"/>
<path d="M244.11 18.0356C243.129 18.1352 242.049 18.7853 241.289 17.6319C242.264 17.5585 243.313 17.0867 244.11 18.0356Z" fill="#E1C949"/>
<path d="M242.721 20.0698C242.894 20.0698 243.088 20.0174 243.234 20.0803C243.549 20.2061 243.837 20.3896 244.136 20.5469C243.821 20.6832 243.523 20.8824 243.198 20.9453C242.82 21.0135 242.411 21.0187 242.034 20.9401C241.761 20.8824 241.525 20.6465 241.268 20.4892C241.536 20.3477 241.793 20.1746 242.07 20.0803C242.264 20.0174 242.5 20.0698 242.715 20.0698H242.721Z" fill="#E1C949"/>
<path d="M244.278 3.21453H240.697C240.692 3.1254 240.686 3.04152 240.681 2.95239H244.267C244.267 3.04152 244.278 3.1254 244.278 3.21453Z" fill="#E1C949"/>
<path d="M244.058 27.8813H240.786L240.765 27.5405C241.856 27.4724 242.946 27.399 244.037 27.3308C244.042 27.5143 244.047 27.6978 244.058 27.8813Z" fill="#E1C949"/>
</svg>
