<svg width="182" height="268" viewBox="0 0 182 268" fill="none" xmlns="http://www.w3.org/2000/svg">
<path fill-rule="evenodd" clip-rule="evenodd" d="M15 0.0888062C6.71573 0.0888062 0 6.80454 0 15.0888V252.089C0 260.373 6.71574 267.089 15 267.089H167C175.284 267.089 182 260.373 182 252.089V15.0888C182 6.80453 175.284 0.0888062 167 0.0888062H15ZM25.6263 5.08881H117.079L117.078 5.089L129.625 5.7875C137.567 6.22967 143.978 12.4393 144.674 20.3633L145.015 24.2444L145.06 34.2353C145.085 39.758 149.583 44.2147 155.106 44.1896L158.178 44.1756L161.774 44.4405C169.738 45.0271 176.05 51.3961 176.565 59.365L177 66.0888V242.089L176.648 246.863C176.062 254.827 169.693 261.139 161.724 261.654L155 262.089H97.3621L93.1133 261.744C85.1992 261.101 78.9537 254.752 78.4414 246.828L78 240V233C78 227.477 73.5229 223 68 223H17C10.5797 222.534 5.4861 217.405 5.06447 210.982L5 210V25L5.35166 20.226C5.93829 12.262 12.3073 5.94983 20.2762 5.43467L25.6263 5.08881ZM78 262V262.089H78.1973L78 262Z" fill="#FFF1F1"/>
</svg>
