<svg width="607" height="267" viewBox="0 0 607 267" fill="none" xmlns="http://www.w3.org/2000/svg">
<path fill-rule="evenodd" clip-rule="evenodd" d="M0.354004 15C0.354004 6.71573 7.06973 0 15.354 0H227.212C227.558 0 227.897 0.0352487 228.223 0.102356H594.693C601.32 0.102356 606.693 5.47495 606.693 12.1024V254.898C606.693 261.525 601.32 266.898 594.693 266.898H228.223C227.897 266.965 227.558 267 227.212 267H15.354C7.06972 267 0.354004 260.284 0.354004 252V15ZM253.938 262.898H583.003C584.29 262.806 586.08 262.661 588.046 262.494C595.934 261.825 602.097 255.421 602.545 247.517L602.693 244.912V12.1024C602.693 7.68408 599.111 4.10236 594.693 4.10236H258.335L247.592 4.64076C239.658 5.03844 233.216 11.1982 232.465 19.1073L232.212 21.7698V239.228L232.641 247.785C232.684 248.643 232.794 249.484 232.967 250.302C234.593 257.017 240.427 262.047 247.511 262.493L253.938 262.898ZM5.354 15L5.35402 14.9823V24.9112L5.81889 20.0185C6.57036 12.1094 13.0115 5.94963 20.9463 5.55196L31.9593 5H149.921L149.92 5.00019L170.309 5.8802C178.168 6.21939 184.603 12.2211 185.488 20.036L185.955 24.1561L186.014 34.1465C186.046 39.6693 190.55 44.1305 196.072 44.111L202.934 44.0868L211.615 44.5825C219.574 45.037 225.985 51.282 226.647 59.2269L227.212 66V242L227.212 242L226.747 246.893C225.996 254.802 219.554 260.962 211.62 261.359L198.835 262H113.564L105.511 261.493C97.5896 260.994 91.2311 254.764 90.5715 246.854L90 240V233C90 227.477 85.5229 223 80 223H5.354V222.911H20.8325L18.5977 222.786C11.5928 222.392 5.94592 216.902 5.354 209.911V15Z" fill="#FFF1F1"/>
</svg>
